<svg xmlns="http://www.w3.org/2000/svg" viewBox="0 0 260 50" width="260" height="50">
  <polygon fill="#000" points="25,2 31.5,18.5 49,20 35.5,31.5 39,49 25,40 11,49 14.5,31.5 1,20 18.5,18.5"/>
  <polygon fill="#000" points="75,2 81.5,18.5 99,20 85.5,31.5 89,49 75,40 61,49 64.5,31.5 51,20 68.5,18.5"/>
  <polygon fill="#000" points="125,2 131.5,18.5 149,20 135.5,31.5 139,49 125,40 111,49 114.5,31.5 101,20 118.5,18.5"/>
  <polygon fill="#000" points="175,2 181.5,18.5 199,20 185.5,31.5 189,49 175,40 161,49 164.5,31.5 151,20 168.5,18.5"/>
  <polygon fill="#000" points="225,2 231.5,18.5 249,20 235.5,31.5 239,49 225,40 211,49 214.5,31.5 201,20 218.5,18.5"/>
</svg>