<svg xmlns="http://www.w3.org/2000/svg" xmlns:xlink="http://www.w3.org/1999/xlink" width="3780" zoomAndPan="magnify" viewBox="0 0 2835 2834.999876" height="3780" preserveAspectRatio="xMidYMid meet" version="1.0"><defs><clipPath id="c867760ecc"><path d="M 390.6875 545.210938 L 1128 545.210938 L 1128 1308.054688 L 390.6875 1308.054688 Z M 390.6875 545.210938 " clip-rule="nonzero"/></clipPath><clipPath id="5846cb7b01"><path d="M 518 0.730469 L 1002 0.730469 L 1002 462.039062 L 518 462.039062 Z M 518 0.730469 " clip-rule="nonzero"/></clipPath><clipPath id="d0feb13539"><path d="M 1265.40625 176.386719 L 1518.679688 176.386719 L 1518.679688 460.648438 L 1265.40625 460.648438 Z M 1265.40625 176.386719 " clip-rule="nonzero"/></clipPath><clipPath id="ff58d112ce"><rect x="0" width="1520" y="0" height="1309"/></clipPath></defs><g transform="matrix(1, 0, 0, 1, 658, 763)"><g clip-path="url(#ff58d112ce)"><g clip-path="url(#c867760ecc)"><path fill="#000000" d="M 1127.6875 937.054688 C 1127.683594 903.742188 1113.023438 876.914062 1085.292969 859.472656 C 1057.625 842.074219 1026.910156 840.488281 1018.058594 840.410156 L 900.179688 840.066406 C 906.914062 828.671875 913.527344 817.425781 915.191406 814.441406 C 928.757812 790.070312 940.8125 767.914062 950.980469 743.558594 C 978.296875 678.128906 979.140625 626.019531 953.546875 584.257812 C 939.015625 560.539062 912.136719 545.210938 885.082031 545.210938 C 881.390625 545.210938 877.679688 545.492188 874.058594 546.054688 C 839.101562 551.433594 827.488281 574.4375 820.734375 596.234375 C 812.460938 622.96875 801.925781 649.296875 789.433594 674.492188 C 762.515625 728.75 695.597656 787.125 641.824219 834.035156 C 624.355469 849.273438 607.851562 863.667969 593.59375 877.066406 C 590.945312 879.550781 588.609375 882.171875 586.542969 884.808594 C 580.710938 881.773438 574.203125 880.160156 567.441406 880.160156 L 432.5 880.164062 C 409.546875 880.164062 390.867188 898.933594 390.867188 922.003906 L 390.867188 1266.21875 C 390.867188 1277.363281 395.179688 1287.847656 403 1295.734375 C 410.867188 1303.671875 421.335938 1308.042969 432.476562 1308.042969 L 567.441406 1308.054688 C 578.589844 1308.054688 589.0625 1303.6875 596.921875 1295.761719 C 597.460938 1295.21875 597.980469 1294.664062 598.484375 1294.097656 C 605.289062 1298.695312 620.054688 1306.976562 638.046875 1306.976562 L 995.785156 1306.976562 L 997.089844 1306.859375 C 998 1306.777344 999.011719 1306.710938 1000.097656 1306.636719 L 1000.398438 1306.617188 C 1008.75 1306.050781 1024.300781 1304.996094 1039.316406 1297.496094 C 1058.644531 1287.835938 1071.15625 1270.449219 1075.5 1247.214844 C 1078.542969 1230.910156 1076.667969 1217.59375 1072.914062 1207.148438 C 1087.101562 1195.632812 1096.332031 1179.769531 1099.445312 1161.089844 C 1102.945312 1140.050781 1099.5625 1123.527344 1093.910156 1111.066406 C 1109.082031 1098.066406 1118.75 1078.984375 1121.683594 1055.625 C 1124.511719 1033.152344 1118.738281 1012.683594 1104.898438 995.453125 C 1119.878906 979.507812 1127.6875 959.648438 1127.6875 937.054688 Z M 572.359375 1266.234375 C 572.359375 1267.660156 571.859375 1268.890625 570.859375 1269.894531 C 569.914062 1270.851562 568.761719 1271.332031 567.441406 1271.332031 L 432.484375 1271.324219 C 431.175781 1271.324219 430.035156 1270.839844 429.082031 1269.882812 C 428.09375 1268.882812 427.59375 1267.652344 427.59375 1266.21875 L 427.59375 922.003906 C 427.59375 919.183594 429.796875 916.886719 432.503906 916.886719 L 567.445312 916.882812 C 568.765625 916.882812 569.914062 917.367188 570.875 918.335938 C 571.847656 919.316406 572.359375 920.582031 572.359375 922.003906 Z M 1066.4375 1008.800781 C 1081.195312 1020.554688 1087.351562 1034.367188 1085.253906 1051.042969 C 1082.925781 1069.570312 1074.605469 1082.621094 1061.191406 1088.800781 L 1039.289062 1098.882812 L 1054.835938 1117.316406 C 1062.964844 1126.957031 1065.789062 1139.660156 1063.222656 1155.058594 C 1061.015625 1168.324219 1053.503906 1178.132812 1040.898438 1184.210938 L 1020.851562 1193.875 L 1034.144531 1211.71875 C 1039.785156 1219.289062 1041.554688 1228.964844 1039.40625 1240.472656 C 1035.179688 1263.085938 1020.992188 1268.414062 997.910156 1269.976562 L 997.609375 1269.996094 C 996.371094 1270.082031 995.203125 1270.164062 994.128906 1270.253906 L 638.050781 1270.253906 C 628.46875 1270.253906 619.308594 1263.878906 618.28125 1263.140625 C 616.992188 1262.21875 613.9375 1259.699219 609.082031 1255.363281 L 609.082031 918.734375 C 610.355469 915.5 613.449219 908.792969 618.730469 903.835938 C 632.5 890.902344 648.753906 876.71875 665.964844 861.710938 C 725.117188 810.109375 792.160156 751.621094 822.328125 690.8125 C 835.691406 663.863281 846.960938 635.699219 855.8125 607.101562 C 861.261719 589.515625 866.160156 584.425781 879.644531 582.351562 C 881.421875 582.078125 883.253906 581.9375 885.082031 581.9375 C 899.421875 581.9375 914.359375 590.582031 922.246094 603.449219 C 941.234375 634.4375 939.550781 675.640625 917.097656 729.414062 C 907.667969 752.003906 896.125 773.195312 883.109375 796.578125 C 880.339844 801.558594 859.878906 836.078125 852.234375 848.957031 L 835.816406 876.601562 L 1017.851562 877.132812 C 1020.839844 877.160156 1090.957031 878.414062 1090.96875 937.054688 C 1090.96875 954.472656 1083.085938 968.671875 1067.539062 979.261719 L 1046.945312 993.285156 Z M 1066.4375 1008.800781 " fill-opacity="1" fill-rule="nonzero"/></g><g clip-path="url(#5846cb7b01)"><path fill="#000000" d="M 769.078125 346.332031 C 766.308594 344.660156 763.1875 343.824219 760.074219 343.824219 C 756.953125 343.824219 753.835938 344.660156 751.066406 346.332031 L 647.765625 408.628906 L 675.089844 291.132812 C 676.558594 284.828125 674.414062 278.234375 669.527344 274 L 578.351562 195.003906 L 698.546875 184.683594 C 704.988281 184.128906 710.597656 180.054688 713.113281 174.09375 L 760.074219 62.976562 L 807.03125 174.09375 C 809.546875 180.054688 815.160156 184.128906 821.601562 184.683594 L 941.792969 195.003906 L 850.621094 274 C 845.730469 278.234375 843.59375 284.828125 845.054688 291.132812 L 872.382812 408.628906 Z M 881.410156 293.472656 L 995.824219 194.335938 C 1001.121094 189.75 1003.15625 182.433594 1000.996094 175.769531 C 998.828125 169.101562 992.882812 164.378906 985.898438 163.78125 L 835.0625 150.828125 L 776.140625 11.382812 C 773.40625 4.925781 767.078125 0.730469 760.074219 0.730469 C 753.066406 0.730469 746.734375 4.925781 744.011719 11.382812 L 685.078125 150.828125 L 534.246094 163.78125 C 527.265625 164.378906 521.320312 169.101562 519.152344 175.769531 C 516.988281 182.433594 519.023438 189.75 524.320312 194.335938 L 638.734375 293.472656 L 604.441406 440.925781 C 602.855469 447.75 605.507812 454.867188 611.175781 458.984375 C 614.222656 461.199219 617.820312 462.316406 621.425781 462.316406 C 624.539062 462.316406 627.65625 461.488281 630.433594 459.808594 L 760.074219 381.628906 L 889.710938 459.808594 C 892.492188 461.488281 895.605469 462.316406 898.714844 462.316406 C 898.730469 462.316406 898.742188 462.316406 898.757812 462.316406 C 908.390625 462.316406 916.195312 454.507812 916.195312 444.878906 C 916.195312 443.082031 915.925781 441.347656 915.425781 439.722656 L 881.410156 293.472656 " fill-opacity="1" fill-rule="nonzero"/></g><path fill="#000000" d="M 532.40625 271.183594 L 494.679688 303.871094 C 490.078125 307.855469 488.058594 314.0625 489.441406 319.992188 L 510.550781 410.761719 L 430.746094 362.636719 C 425.535156 359.488281 419.007812 359.488281 413.792969 362.636719 L 333.988281 410.761719 L 355.097656 319.992188 C 356.476562 314.0625 354.460938 307.855469 349.859375 303.871094 L 279.425781 242.84375 L 372.277344 234.871094 C 378.34375 234.351562 383.621094 230.515625 385.996094 224.90625 L 422.269531 139.0625 L 458.542969 224.90625 C 462.070312 233.257812 471.699219 237.164062 480.050781 233.636719 C 488.398438 230.109375 492.308594 220.480469 488.78125 212.128906 L 437.390625 90.503906 C 434.820312 84.425781 428.867188 80.480469 422.269531 80.480469 C 415.675781 80.480469 409.71875 84.425781 407.152344 90.503906 L 359.605469 203.011719 L 237.917969 213.460938 C 231.34375 214.023438 225.75 218.464844 223.710938 224.742188 C 221.671875 231.011719 223.589844 237.898438 228.574219 242.21875 L 320.882812 322.199219 L 293.214844 441.160156 C 291.71875 447.582031 294.214844 454.277344 299.550781 458.15625 C 302.417969 460.238281 305.804688 461.289062 309.203125 461.289062 C 312.128906 461.289062 315.0625 460.507812 317.679688 458.929688 L 422.269531 395.863281 L 526.855469 458.929688 C 532.507812 462.339844 539.644531 462.035156 544.984375 458.15625 C 550.320312 454.277344 552.816406 447.582031 551.324219 441.160156 L 523.660156 322.199219 L 553.902344 295.992188 C 560.75 290.058594 561.496094 279.691406 555.558594 272.839844 C 549.625 265.988281 539.257812 265.246094 532.40625 271.183594 " fill-opacity="1" fill-rule="nonzero"/><path fill="#000000" d="M 1199.269531 322.199219 L 1291.574219 242.21875 C 1296.558594 237.898438 1298.472656 231.011719 1296.433594 224.742188 C 1294.398438 218.464844 1288.800781 214.023438 1282.230469 213.460938 L 1160.542969 203.011719 L 1112.996094 90.503906 C 1110.425781 84.425781 1104.476562 80.480469 1097.875 80.480469 C 1091.28125 80.480469 1085.328125 84.425781 1082.757812 90.503906 L 1031.363281 212.128906 C 1027.835938 220.480469 1031.746094 230.109375 1040.097656 233.636719 C 1048.453125 237.164062 1058.074219 233.257812 1061.601562 224.90625 L 1097.875 139.0625 L 1134.152344 224.90625 C 1136.527344 230.515625 1141.808594 234.351562 1147.867188 234.871094 L 1240.71875 242.84375 L 1170.289062 303.871094 C 1165.6875 307.855469 1163.671875 314.0625 1165.050781 319.992188 L 1186.160156 410.761719 L 1106.355469 362.636719 C 1101.140625 359.492188 1094.613281 359.492188 1089.402344 362.636719 L 1009.59375 410.761719 L 1030.707031 319.992188 C 1032.085938 314.0625 1030.066406 307.855469 1025.464844 303.871094 L 987.738281 271.183594 C 980.886719 265.246094 970.523438 265.988281 964.589844 272.839844 C 958.652344 279.691406 959.390625 290.058594 966.246094 295.992188 L 996.488281 322.199219 L 968.824219 441.160156 C 967.324219 447.582031 969.824219 454.277344 975.160156 458.15625 C 980.492188 462.03125 987.640625 462.339844 993.285156 458.929688 L 1097.875 395.863281 L 1202.472656 458.929688 C 1205.085938 460.507812 1208.019531 461.289062 1210.945312 461.289062 C 1214.339844 461.289062 1217.726562 460.238281 1220.597656 458.15625 C 1225.933594 454.277344 1228.425781 447.582031 1226.9375 441.160156 L 1199.269531 322.199219 " fill-opacity="1" fill-rule="nonzero"/><path fill="#000000" d="M 229.242188 314.5 L 199.933594 339.898438 C 195.621094 343.636719 193.730469 349.457031 195.023438 355.015625 L 208.484375 412.894531 L 157.597656 382.207031 C 152.707031 379.257812 146.589844 379.257812 141.703125 382.207031 L 90.8125 412.894531 L 104.273438 355.011719 C 105.566406 349.457031 103.671875 343.636719 99.359375 339.898438 L 54.453125 300.984375 L 113.660156 295.902344 C 119.34375 295.414062 124.296875 291.816406 126.519531 286.558594 L 149.648438 231.824219 L 172.777344 286.558594 C 176.082031 294.386719 185.113281 298.058594 192.941406 294.746094 C 200.765625 291.4375 204.433594 282.410156 201.125 274.582031 L 163.824219 186.296875 C 161.417969 180.605469 155.835938 176.902344 149.648438 176.902344 C 143.464844 176.902344 137.882812 180.601562 135.476562 186.296875 L 101.78125 266.035156 L 15.535156 273.4375 C 9.375 273.964844 4.128906 278.132812 2.21875 284.015625 C 0.308594 289.898438 2.101562 296.351562 6.777344 300.398438 L 72.195312 357.082031 L 52.589844 441.390625 C 51.191406 447.414062 53.53125 453.691406 58.535156 457.324219 C 63.535156 460.960938 70.230469 461.246094 75.527344 458.054688 L 149.648438 413.351562 L 223.773438 458.054688 C 226.226562 459.53125 228.976562 460.265625 231.71875 460.265625 C 234.902344 460.265625 238.078125 459.277344 240.765625 457.324219 C 245.769531 453.691406 248.109375 447.410156 246.710938 441.390625 L 227.101562 357.082031 L 249.398438 337.757812 C 255.820312 332.195312 256.515625 322.476562 250.949219 316.054688 C 245.386719 309.628906 235.667969 308.9375 229.242188 314.5 " fill-opacity="1" fill-rule="nonzero"/><g clip-path="url(#d0feb13539)"><path fill="#000000" d="M 1517.925781 284.015625 C 1516.015625 278.132812 1510.773438 273.964844 1504.609375 273.4375 L 1418.367188 266.035156 L 1384.671875 186.296875 C 1382.265625 180.601562 1376.679688 176.902344 1370.496094 176.902344 C 1364.3125 176.902344 1358.734375 180.601562 1356.324219 186.296875 L 1319.019531 274.582031 C 1315.710938 282.410156 1319.378906 291.4375 1327.203125 294.746094 C 1335.03125 298.058594 1344.058594 294.390625 1347.367188 286.558594 L 1370.496094 231.824219 L 1393.628906 286.558594 C 1395.851562 291.816406 1400.800781 295.414062 1406.488281 295.902344 L 1465.695312 300.984375 L 1420.78125 339.898438 C 1416.472656 343.636719 1414.578125 349.457031 1415.871094 355.015625 L 1429.332031 412.894531 L 1378.441406 382.207031 C 1373.554688 379.257812 1367.445312 379.257812 1362.550781 382.207031 L 1311.660156 412.894531 L 1325.121094 355.015625 C 1326.417969 349.457031 1324.527344 343.636719 1320.210938 339.898438 L 1290.902344 314.5 C 1284.476562 308.9375 1274.761719 309.628906 1269.191406 316.054688 C 1263.628906 322.476562 1264.320312 332.195312 1270.742188 337.757812 L 1293.042969 357.082031 L 1273.4375 441.390625 C 1272.039062 447.414062 1274.378906 453.691406 1279.382812 457.324219 C 1284.386719 460.960938 1291.074219 461.246094 1296.371094 458.054688 L 1370.496094 413.351562 L 1444.621094 458.054688 C 1447.070312 459.53125 1449.824219 460.265625 1452.566406 460.265625 C 1455.753906 460.265625 1458.925781 459.277344 1461.617188 457.324219 C 1466.613281 453.691406 1468.957031 447.414062 1467.554688 441.390625 L 1447.949219 357.082031 L 1513.371094 300.398438 C 1518.042969 296.351562 1519.835938 289.898438 1517.925781 284.015625 " fill-opacity="1" fill-rule="nonzero"/></g></g></g></svg>