<svg xmlns="http://www.w3.org/2000/svg" width="40" height="40" viewBox="0 0 2835 2835" preserveAspectRatio="xMidYMid meet">
  <defs>
    <linearGradient id="redGrad" x1="0%" y1="0%" x2="100%" y2="100%">
      <stop offset="0%" stop-color="#e53935"/>
      <stop offset="100%" stop-color="#8B0000"/>
    </linearGradient>
  </defs>
  <g transform="matrix(1, 0, 0, 1, 619, 1013)">
    <g>
      <path fill="url(#redGrad)" d="M 309.398438 795.339844 C 317.597656 803.535156 328.949219 807.949219 340.933594 807.949219 C 352.914062 807.949219 363.632812 803.535156 372.464844 795.339844 L 663.820312 504.027344 C 680.84375 487 680.84375 458.625 663.820312 441.601562 L 637.332031 415.117188 C 629.132812 406.921875 617.78125 402.507812 606.429688 402.507812 C 594.449219 402.507812 582.464844 406.921875 574.269531 415.117188 L 402.734375 584.738281 L 402.734375 44.988281 C 402.734375 20.394531 385.078125 0.847656 360.480469 0.847656 L 323.273438 0.847656 C 298.679688 0.847656 276.605469 20.394531 276.605469 44.988281 L 276.605469 586.628906 L 105.703125 415.117188 C 97.503906 406.921875 86.785156 402.507812 74.800781 402.507812 C 62.820312 402.507812 52.097656 406.921875 43.902344 415.117188 L 18.046875 441.601562 C 1.019531 458.625 1.019531 487 18.046875 504.027344 Z"/>
      <path fill="url(#redGrad)" d="M 1224.460938 795.339844 C 1232.660156 803.535156 1244.011719 807.949219 1255.992188 807.949219 C 1267.976562 807.949219 1278.695312 803.535156 1287.523438 795.339844 L 1578.878906 504.027344 C 1595.90625 487 1595.90625 458.625 1578.878906 441.601562 L 1552.394531 415.117188 C 1544.195312 406.921875 1532.84375 402.507812 1521.492188 402.507812 C 1509.507812 402.507812 1497.527344 406.921875 1489.328125 415.117188 L 1317.796875 584.738281 L 1317.796875 44.988281 C 1317.796875 20.394531 1300.136719 0.847656 1275.542969 0.847656 L 1238.335938 0.847656 C 1213.742188 0.847656 1191.667969 20.394531 1191.667969 44.988281 L 1191.667969 586.628906 L 1020.765625 415.117188 C 1012.566406 406.921875 1001.847656 402.507812 989.863281 402.507812 C 977.882812 402.507812 967.160156 406.921875 958.960938 415.117188 L 933.105469 441.601562 C 916.078125 458.625 916.078125 487 933.105469 504.027344 Z"/>
    </g>
  </g>
</svg>