<svg xmlns="http://www.w3.org/2000/svg" xmlns:xlink="http://www.w3.org/1999/xlink" width="3780" zoomAndPan="magnify" viewBox="0 0 2835 2834.999876" height="3780" preserveAspectRatio="xMidYMid meet" version="1.0"><defs><clipPath id="cff464888c"><path d="M 73 824.347656 L 1207 824.347656 L 1207 1861.726562 L 73 1861.726562 Z M 73 824.347656 " clip-rule="nonzero"/></clipPath><clipPath id="e806edfebd"><path d="M 1020.273438 1.042969 L 2154.417969 1.042969 L 2154.417969 1087.925781 L 1020.273438 1087.925781 Z M 1020.273438 1.042969 " clip-rule="nonzero"/></clipPath><clipPath id="0e64372229"><path d="M 0.726562 191.535156 L 713.3125 191.535156 L 713.3125 800.609375 L 0.726562 800.609375 Z M 0.726562 191.535156 " clip-rule="nonzero"/></clipPath><clipPath id="018e45bd36"><rect x="0" width="2155" y="0" height="1863"/></clipPath></defs><g transform="matrix(1, 0, 0, 1, 340, 486)"><g clip-path="url(#018e45bd36)"><path fill="#000000" d="M 1059.894531 1570.851562 L 416.949219 1570.851562 C 399.339844 1570.851562 385.011719 1585.175781 385.011719 1602.777344 L 385.011719 1718.457031 C 385.011719 1736.0625 399.339844 1750.382812 416.949219 1750.382812 L 1059.894531 1750.382812 C 1077.503906 1750.382812 1091.828125 1736.0625 1091.828125 1718.457031 L 1091.828125 1602.777344 C 1091.828125 1585.175781 1077.503906 1570.851562 1059.894531 1570.851562 Z M 1059.699219 1718.265625 L 417.140625 1718.265625 L 417.109375 1602.96875 L 474.519531 1602.96875 L 474.519531 1641.988281 C 474.519531 1650.855469 481.710938 1658.046875 490.582031 1658.046875 C 499.457031 1658.046875 506.648438 1650.855469 506.648438 1641.988281 L 506.648438 1602.96875 L 598.4375 1602.96875 L 598.4375 1641.988281 C 598.4375 1650.855469 605.628906 1658.046875 614.503906 1658.046875 C 623.375 1658.046875 630.566406 1650.855469 630.566406 1641.988281 L 630.566406 1602.96875 L 722.355469 1602.96875 L 722.355469 1641.988281 C 722.355469 1650.855469 729.546875 1658.046875 738.421875 1658.046875 C 747.292969 1658.046875 754.484375 1650.855469 754.484375 1641.988281 L 754.484375 1602.96875 L 846.273438 1602.96875 L 846.273438 1641.988281 C 846.273438 1650.855469 853.46875 1658.046875 862.339844 1658.046875 C 871.210938 1658.046875 878.402344 1650.855469 878.402344 1641.988281 L 878.402344 1602.96875 L 970.195312 1602.96875 L 970.195312 1641.988281 C 970.195312 1650.855469 977.386719 1658.046875 986.257812 1658.046875 C 995.128906 1658.046875 1002.320312 1650.855469 1002.320312 1641.988281 L 1002.320312 1602.96875 L 1059.699219 1602.96875 Z M 1059.699219 1718.265625 " fill-opacity="1" fill-rule="nonzero"/><g clip-path="url(#cff464888c)"><path fill="#000000" d="M 1142.636719 1049.535156 L 995.488281 1049.535156 L 995.488281 898.609375 C 995.488281 881.292969 981.398438 867.203125 964.074219 867.203125 L 892.78125 867.203125 C 875.460938 867.203125 861.367188 881.292969 861.367188 898.609375 L 861.367188 924.816406 L 776.671875 840.199219 C 766.460938 829.949219 752.878906 824.300781 738.421875 824.300781 C 723.96875 824.300781 710.382812 829.949219 700.199219 840.171875 L 490.714844 1049.535156 L 302.070312 1049.535156 L 302.070312 989.382812 C 302.070312 953.960938 273.242188 925.140625 237.804688 925.140625 L 187.652344 925.140625 C 124.5625 925.140625 73.234375 976.449219 73.234375 1039.519531 L 73.234375 1747.394531 C 73.234375 1810.460938 124.5625 1861.773438 187.652344 1861.773438 L 1142.636719 1861.773438 C 1178.074219 1861.773438 1206.902344 1832.953125 1206.902344 1797.527344 L 1206.902344 1113.714844 C 1206.902344 1078.328125 1178.074219 1049.535156 1142.636719 1049.535156 Z M 508.25 1077.425781 C 508.597656 1077.109375 508.929688 1076.777344 509.246094 1076.433594 L 722.941406 862.863281 C 727.078125 858.710938 732.574219 856.421875 738.421875 856.421875 C 744.269531 856.421875 749.769531 858.710938 753.933594 862.890625 L 866.078125 974.929688 C 870.667969 979.523438 877.578125 980.894531 883.582031 978.410156 C 889.585938 975.921875 893.496094 970.066406 893.496094 963.574219 L 893.496094 899.324219 L 963.363281 899.324219 L 963.363281 1065.601562 C 963.363281 1066.136719 963.390625 1066.671875 963.445312 1067.203125 C 963.484375 1067.601562 963.550781 1067.996094 963.621094 1068.386719 C 963.644531 1068.511719 963.652344 1068.636719 963.679688 1068.761719 C 963.773438 1069.242188 963.894531 1069.707031 964.03125 1070.167969 C 964.042969 1070.203125 964.050781 1070.242188 964.0625 1070.28125 C 964.203125 1070.75 964.375 1071.210938 964.558594 1071.664062 C 964.570312 1071.691406 964.578125 1071.726562 964.59375 1071.757812 C 964.769531 1072.1875 964.972656 1072.605469 965.1875 1073.015625 C 965.214844 1073.070312 965.238281 1073.125 965.265625 1073.179688 C 965.472656 1073.558594 965.699219 1073.925781 965.929688 1074.289062 C 965.980469 1074.367188 966.023438 1074.449219 966.078125 1074.53125 C 966.3125 1074.878906 966.566406 1075.214844 966.828125 1075.542969 C 966.890625 1075.625 966.949219 1075.710938 967.015625 1075.792969 C 967.351562 1076.199219 967.703125 1076.589844 968.074219 1076.960938 L 1051.527344 1160.324219 C 1056.046875 1164.839844 1057.234375 1170.855469 1054.816406 1176.753906 C 1052.347656 1182.695312 1047.25 1186.101562 1040.835938 1186.101562 L 1008.832031 1186.101562 C 999.957031 1186.101562 992.765625 1193.289062 992.765625 1202.160156 L 992.765625 1446.789062 C 992.765625 1447.410156 992.152344 1448.027344 991.527344 1448.027344 L 845.292969 1448.027344 L 845.292969 1227.195312 C 845.292969 1218.324219 838.101562 1211.136719 829.230469 1211.136719 L 647.613281 1211.136719 C 638.742188 1211.136719 631.546875 1218.324219 631.546875 1227.195312 L 631.546875 1448.027344 L 485.316406 1448.027344 C 484.691406 1448.027344 484.074219 1447.414062 484.074219 1446.789062 L 484.074219 1202.160156 C 484.074219 1193.289062 476.882812 1186.101562 468.011719 1186.101562 L 436.007812 1186.101562 C 429.589844 1186.101562 424.492188 1182.695312 422.054688 1176.820312 C 419.609375 1170.855469 420.796875 1164.839844 425.3125 1160.324219 L 508.25 1077.433594 Z M 813.164062 1243.242188 L 813.164062 1448.015625 L 663.675781 1448.015625 L 663.675781 1243.242188 Z M 105.363281 1039.519531 C 105.363281 994.164062 142.277344 957.261719 187.652344 957.261719 L 237.804688 957.261719 C 255.523438 957.261719 269.941406 971.671875 269.941406 989.386719 L 269.941406 1600.894531 C 269.941406 1618.609375 255.523438 1633.019531 237.804688 1633.019531 L 187.652344 1633.019531 C 155.378906 1633.019531 126.183594 1646.449219 105.363281 1668.003906 Z M 1174.773438 1797.53125 C 1174.773438 1815.246094 1160.355469 1829.65625 1142.636719 1829.65625 L 187.652344 1829.65625 C 142.277344 1829.65625 105.363281 1792.753906 105.363281 1747.394531 C 105.363281 1702.039062 142.277344 1665.136719 187.652344 1665.136719 L 237.804688 1665.136719 C 273.238281 1665.136719 302.070312 1636.316406 302.070312 1600.890625 L 302.070312 1081.652344 L 458.578125 1081.652344 L 402.597656 1137.601562 C 388.886719 1151.308594 384.953125 1171 392.355469 1189.058594 C 399.824219 1207.039062 416.550781 1218.207031 436.007812 1218.207031 L 451.945312 1218.207031 L 451.945312 1446.777344 C 451.945312 1465.167969 466.914062 1480.132812 485.316406 1480.132812 L 991.523438 1480.132812 C 1009.921875 1480.132812 1024.890625 1465.171875 1024.890625 1446.777344 L 1024.890625 1218.207031 L 1040.832031 1218.207031 C 1060.289062 1218.207031 1077.015625 1207.039062 1084.511719 1188.992188 C 1091.886719 1171 1087.957031 1151.308594 1074.238281 1137.597656 L 1018.230469 1081.652344 L 1142.636719 1081.652344 C 1160.355469 1081.652344 1174.773438 1096.035156 1174.773438 1113.714844 Z M 1174.773438 1797.53125 " fill-opacity="1" fill-rule="nonzero"/></g><g clip-path="url(#e806edfebd)"><path fill="#1a1a1a" d="M 2149.992188 1004.886719 L 1966.0625 686.503906 C 1957.386719 664.382812 1971.464844 639.527344 1989.371094 627.183594 C 2013.300781 610.703125 2049.523438 605.417969 2103.351562 610.5625 C 2110.824219 611.285156 2117.925781 607.246094 2121.15625 600.488281 C 2124.390625 593.726562 2123.03125 585.664062 2117.785156 580.320312 C 2057.773438 519.261719 1980.285156 490.835938 1910.503906 504.296875 C 1875.800781 511 1831.527344 538.164062 1795.957031 560 C 1792.839844 561.914062 1789.789062 563.785156 1786.8125 565.597656 C 1785.324219 566.503906 1783.894531 567.46875 1782.503906 568.476562 L 1746.113281 555.835938 L 1746.113281 397.40625 L 1871.433594 397.40625 C 1881.289062 397.40625 1889.269531 389.429688 1889.269531 379.582031 C 1889.269531 369.734375 1881.289062 361.753906 1871.433594 361.753906 L 1746.113281 361.753906 L 1746.113281 275.398438 L 1871.433594 275.398438 C 1881.289062 275.398438 1889.269531 267.421875 1889.269531 257.574219 C 1889.269531 247.722656 1881.289062 239.746094 1871.433594 239.746094 L 1746.113281 239.746094 L 1746.113281 153.445312 L 1871.433594 153.445312 C 1881.289062 153.445312 1889.269531 145.46875 1889.269531 135.621094 C 1889.269531 125.773438 1881.289062 117.792969 1871.433594 117.792969 L 1746.113281 117.792969 L 1746.113281 62.144531 C 1746.113281 52.296875 1738.128906 44.320312 1728.277344 44.320312 C 1718.425781 44.320312 1710.441406 52.296875 1710.441406 62.144531 L 1710.441406 117.792969 L 1626.0625 117.792969 L 1626.0625 62.144531 C 1626.0625 52.296875 1618.082031 44.320312 1608.226562 44.320312 C 1598.375 44.320312 1590.394531 52.296875 1590.394531 62.144531 L 1590.394531 117.792969 L 1482.90625 117.792969 L 1482.90625 65.617188 C 1482.90625 56.152344 1475.503906 48.328125 1466.050781 47.804688 C 1445.394531 46.671875 1425.277344 54.421875 1410.859375 69.074219 L 1334.363281 146.773438 L 1245.21875 57.613281 L 1271.359375 31.507812 C 1278.335938 24.550781 1278.335938 13.257812 1271.359375 6.285156 C 1264.398438 -0.671875 1253.101562 -0.6875 1246.125 6.285156 L 1207.675781 44.671875 C 1207.5625 44.773438 1207.449219 44.871094 1207.335938 44.972656 C 1207.222656 45.085938 1207.140625 45.199219 1207.039062 45.296875 L 1168.5625 83.726562 C 1161.589844 90.683594 1161.589844 101.980469 1168.5625 108.953125 C 1172.050781 112.4375 1176.617188 114.179688 1181.179688 114.179688 C 1185.746094 114.179688 1190.3125 112.4375 1193.796875 108.964844 L 1219.96875 82.820312 L 1309.324219 172.195312 L 1198.433594 284.824219 L 1137.503906 223.917969 L 1163.671875 197.785156 C 1170.648438 190.828125 1170.648438 179.535156 1163.671875 172.5625 C 1156.710938 165.589844 1145.414062 165.589844 1138.4375 172.5625 L 1060.890625 250.019531 C 1053.917969 256.976562 1053.917969 268.269531 1060.890625 275.242188 C 1064.378906 278.730469 1068.945312 280.472656 1073.507812 280.472656 C 1078.074219 280.472656 1082.636719 278.730469 1086.125 275.257812 L 1112.269531 249.140625 L 1173.414062 310.257812 L 1039.996094 445.773438 C 1013.425781 472.851562 1013.78125 516.496094 1040.789062 543.054688 C 1053.730469 555.792969 1070.871094 562.792969 1089.089844 562.777344 C 1089.300781 562.777344 1089.5 562.777344 1089.710938 562.777344 C 1102.074219 562.664062 1113.882812 559.335938 1124.203125 553.214844 L 1124.203125 893.40625 L 1100.613281 893.40625 C 1069.949219 893.40625 1045.011719 918.347656 1045.011719 948.984375 C 1045.011719 979.621094 1069.964844 1004.5625 1100.613281 1004.5625 L 1829.542969 1004.5625 C 1860.207031 1004.5625 1885.144531 979.621094 1885.144531 948.984375 C 1885.144531 918.347656 1860.191406 893.40625 1829.542969 893.40625 L 1805.953125 893.40625 L 1805.953125 775.804688 L 1811.847656 772.402344 C 1823.429688 765.617188 1829.726562 752.992188 1828.578125 740.082031 L 1835.894531 735.871094 C 1838.074219 734.625 1840.882812 735.375 1842.128906 737.53125 L 1850.339844 751.730469 L 2034.933594 1071.347656 C 2039.371094 1079.011719 2046.546875 1084.496094 2055.136719 1086.792969 C 2058 1087.558594 2060.921875 1087.941406 2063.796875 1087.941406 C 2069.554688 1087.941406 2075.226562 1086.4375 2080.316406 1083.492188 L 2137.859375 1050.347656 C 2153.679688 1041.21875 2159.136719 1020.855469 2150.007812 1004.902344 Z M 1626.046875 153.433594 L 1710.429688 153.433594 L 1710.429688 239.730469 L 1626.046875 239.730469 Z M 1626.046875 275.386719 L 1710.429688 275.386719 L 1710.429688 361.742188 L 1626.046875 361.742188 Z M 1626.046875 397.40625 L 1710.429688 397.40625 L 1710.429688 543.4375 L 1626.046875 514.132812 L 1626.046875 397.394531 Z M 1482.890625 194.867188 L 1482.890625 153.417969 L 1590.378906 153.417969 L 1590.378906 239.71875 L 1482.890625 239.71875 Z M 1482.890625 275.386719 L 1590.378906 275.386719 L 1590.378906 361.742188 L 1482.890625 361.742188 Z M 1482.890625 397.40625 L 1590.378906 397.40625 L 1590.378906 501.746094 L 1482.890625 464.421875 Z M 1459.1875 493.953125 L 1601.878906 543.507812 C 1602.289062 543.664062 1602.699219 543.816406 1603.125 543.929688 L 1759.664062 598.289062 C 1758.429688 601.632812 1757.453125 605.132812 1756.730469 608.761719 L 1756.09375 612.035156 C 1755.949219 612.773438 1755.738281 613.367188 1755.3125 613.90625 C 1744.734375 606.863281 1730.730469 606.210938 1719.417969 612.714844 L 1681.238281 634.722656 C 1673.371094 639.242188 1667.726562 646.570312 1665.375 655.355469 C 1663.019531 664.15625 1664.242188 673.324219 1668.792969 681.132812 L 1727.085938 782.183594 C 1733.421875 792.964844 1744.851562 799.003906 1756.558594 799.003906 C 1761.179688 799.003906 1765.832031 798.039062 1770.242188 796.082031 L 1770.242188 893.378906 L 1593.46875 893.378906 L 1593.46875 712.433594 C 1593.46875 641.652344 1535.855469 584.0625 1465.042969 584.0625 C 1394.230469 584.0625 1336.617188 641.652344 1336.617188 712.433594 L 1336.617188 893.378906 L 1159.84375 893.378906 L 1159.84375 520.167969 L 1447.195312 228.308594 L 1447.195312 477.089844 C 1447.195312 484.683594 1452 491.445312 1459.171875 493.9375 Z M 1557.789062 712.433594 L 1557.789062 893.378906 L 1372.296875 893.378906 L 1372.296875 712.433594 C 1372.296875 661.320312 1413.90625 619.730469 1465.042969 619.730469 C 1516.179688 619.730469 1557.789062 661.320312 1557.789062 712.433594 Z M 1112.664062 517.261719 C 1106.527344 523.527344 1098.246094 527.011719 1089.371094 527.097656 C 1080.511719 527.152344 1072.089844 523.808594 1065.796875 517.617188 C 1052.78125 504.820312 1052.625 483.792969 1065.429688 470.742188 L 1210.953125 322.925781 C 1210.953125 322.925781 1211.09375 322.8125 1211.152344 322.742188 C 1211.234375 322.65625 1211.320312 322.558594 1211.40625 322.460938 L 1346.980469 184.75 C 1346.980469 184.75 1347.035156 184.707031 1347.0625 184.679688 C 1347.105469 184.636719 1347.132812 184.609375 1347.164062 184.566406 L 1436.277344 94.058594 C 1439.441406 90.839844 1443.152344 88.289062 1447.207031 86.492188 L 1447.207031 180.457031 C 1443.550781 182.226562 1440.175781 184.621094 1437.242188 187.613281 L 1112.679688 517.277344 Z M 1829.5 929.058594 C 1840.484375 929.058594 1849.417969 938 1849.417969 948.96875 C 1849.417969 959.9375 1840.472656 968.878906 1829.5 968.878906 L 1100.585938 968.878906 C 1089.597656 968.878906 1080.667969 959.9375 1080.667969 948.96875 C 1080.667969 938 1089.613281 929.058594 1100.585938 929.058594 L 1829.511719 929.058594 Z M 1818.085938 704.9375 L 1805.457031 712.191406 C 1805.457031 712.191406 1805.3125 712.277344 1805.242188 712.320312 C 1794.78125 718.527344 1789.746094 730.6875 1792.683594 742.25 L 1779.652344 749.746094 C 1779.527344 749.816406 1779.398438 749.886719 1779.269531 749.957031 L 1757.042969 762.753906 L 1700.519531 664.777344 L 1736.144531 644.230469 C 1745.359375 652.351562 1758.445312 653.65625 1768.992188 647.503906 L 1771.8125 645.890625 C 1782.050781 639.878906 1788.898438 630.257812 1791.109375 618.78125 L 1791.730469 615.5625 C 1793.417969 606.992188 1797.871094 600.613281 1805.371094 596.035156 C 1808.375 594.207031 1811.453125 592.308594 1814.597656 590.382812 C 1847.703125 570.0625 1888.914062 544.769531 1917.238281 539.3125 C 1960.945312 530.878906 2010.453125 543.691406 2054.074219 573.335938 C 2018.332031 574.894531 1990.71875 582.941406 1969.097656 597.835938 C 1942.515625 616.160156 1922.371094 650.664062 1928.878906 685.808594 L 1872.199219 718.484375 C 1860.789062 700.289062 1836.84375 694.152344 1818.058594 704.9375 Z M 2064.578125 1051.367188 L 1890.132812 749.335938 L 1943.410156 718.613281 L 2117.898438 1020.660156 Z M 1937.042969 375.5 C 1937.042969 371.714844 1939.398438 368.316406 1942.957031 367.011719 L 1982.011719 352.558594 L 1996.472656 313.519531 C 1997.792969 309.960938 2001.179688 307.609375 2004.964844 307.609375 C 2008.75 307.609375 2012.136719 309.976562 2013.457031 313.519531 L 2027.890625 352.558594 L 2066.945312 367.011719 C 2070.503906 368.328125 2072.859375 371.714844 2072.859375 375.5 C 2072.859375 379.285156 2070.488281 382.671875 2066.945312 383.988281 L 2027.902344 398.398438 L 2013.484375 437.425781 C 2012.167969 440.980469 2008.777344 443.335938 2004.992188 443.335938 C 2001.207031 443.335938 1997.820312 440.980469 1996.5 437.425781 L 1982.042969 398.386719 L 1942.984375 383.960938 C 1939.425781 382.640625 1937.074219 379.253906 1937.074219 375.472656 Z M 1937.042969 375.5 " fill-opacity="1" fill-rule="nonzero"/></g><g clip-path="url(#0e64372229)"><path fill="#231f20" d="M 704.003906 331.992188 L 362.613281 193.03125 C 359.019531 191.566406 355.019531 191.566406 351.417969 193.03125 L 10.027344 331.992188 C 4.433594 334.261719 0.78125 339.707031 0.78125 345.738281 L 0.78125 384.933594 C 0.78125 393.128906 7.425781 399.785156 15.625 399.785156 L 45.308594 399.785156 L 45.308594 785.777344 C 45.308594 793.972656 51.957031 800.628906 60.15625 800.628906 L 653.882812 800.628906 C 662.074219 800.628906 668.730469 793.972656 668.730469 785.777344 L 668.730469 399.785156 L 698.414062 399.785156 C 706.605469 399.785156 713.257812 393.128906 713.257812 384.933594 L 713.257812 345.738281 C 713.257812 339.699219 709.597656 334.261719 704.011719 331.992188 Z M 238.277344 751.03125 C 238.277344 761.632812 227.875 770.929688 216.015625 770.929688 C 204.15625 770.929688 193.75 761.625 193.75 751.03125 L 193.75 726.394531 L 238.277344 726.394531 Z M 263.332031 770.929688 C 266.25 764.785156 267.960938 758.070312 267.960938 751.03125 L 267.960938 726.394531 L 446.078125 726.394531 L 446.078125 751.03125 C 446.078125 758.082031 447.789062 764.792969 450.699219 770.929688 Z M 520.296875 751.03125 C 520.296875 761.632812 509.894531 770.929688 498.03125 770.929688 C 486.171875 770.929688 475.769531 761.625 475.769531 751.03125 L 475.769531 726.394531 L 520.296875 726.394531 Z M 535.132812 693.132812 C 535.132812 694.695312 535.070312 695.839844 534.988281 696.664062 C 534.59375 696.6875 534.132812 696.703125 533.597656 696.703125 L 180.433594 696.703125 C 179.898438 696.703125 179.429688 696.6875 179.042969 696.664062 C 178.960938 695.839844 178.894531 694.6875 178.894531 693.132812 L 178.894531 600.503906 C 178.894531 594.089844 179.898438 592.238281 180.433594 592.789062 L 183.660156 592.789062 C 185.277344 593.347656 186.933594 593.6875 188.570312 593.6875 C 190.207031 593.6875 191.90625 593.324219 193.480469 592.773438 L 533.992188 592.171875 C 534.039062 592.238281 535.132812 594.03125 535.132812 600.515625 L 535.132812 693.140625 Z M 210.316406 563.09375 L 248.945312 459.820312 C 248.945312 459.820312 250.214844 459.167969 254.332031 459.167969 L 459.425781 459.167969 C 462.585938 459.167969 464.03125 459.53125 464.335938 459.5625 L 503.871094 563.09375 Z M 639.039062 770.929688 L 545.351562 770.929688 C 548.269531 764.785156 549.980469 758.070312 549.980469 751.03125 L 549.980469 722.960938 C 558.3125 718.808594 564.824219 710.136719 564.824219 693.132812 L 564.824219 600.503906 C 564.824219 569.015625 545.84375 563.726562 535.667969 563.148438 L 492.09375 449.058594 C 488.804688 440.125 480.472656 429.480469 459.425781 429.480469 L 254.332031 429.480469 C 233.285156 429.480469 224.953125 440.125 221.707031 448.953125 L 178.640625 563.140625 C 168.53125 563.636719 149.222656 568.753906 149.222656 600.503906 L 149.222656 693.132812 C 149.222656 710.144531 155.734375 718.816406 164.066406 722.960938 L 164.066406 751.03125 C 164.066406 758.082031 165.777344 764.792969 168.6875 770.929688 L 75.007812 770.929688 L 75.007812 379.035156 L 357.027344 269.027344 L 639.046875 379.035156 L 639.046875 770.929688 Z M 683.566406 370.09375 L 668.722656 370.09375 L 668.722656 368.902344 C 668.722656 362.789062 664.96875 357.292969 659.269531 355.074219 L 362.40625 239.273438 C 358.945312 237.921875 355.085938 237.921875 351.625 239.273438 L 54.761719 355.074219 C 49.058594 357.292969 45.308594 362.789062 45.308594 368.902344 L 45.308594 370.09375 L 30.464844 370.09375 L 30.464844 355.730469 L 357.011719 222.8125 L 683.558594 355.730469 L 683.558594 370.09375 Z M 235.203125 620.386719 C 220.523438 620.386719 208.585938 632.242188 208.585938 646.8125 C 208.585938 661.378906 220.523438 673.234375 235.203125 673.234375 C 249.882812 673.234375 261.816406 661.378906 261.816406 646.8125 C 261.816406 632.242188 249.875 620.386719 235.203125 620.386719 Z M 232.136719 646.8125 C 232.136719 645.011719 233.507812 643.546875 235.203125 643.546875 C 236.898438 643.546875 238.277344 645.011719 238.277344 646.8125 C 238.269531 650.390625 232.136719 650.40625 232.136719 646.8125 Z M 478.828125 620.386719 C 464.15625 620.386719 452.222656 632.242188 452.222656 646.8125 C 452.222656 661.378906 464.15625 673.234375 478.828125 673.234375 C 493.5 673.234375 505.453125 661.378906 505.453125 646.8125 C 505.453125 632.242188 493.507812 620.386719 478.828125 620.386719 Z M 475.769531 646.8125 C 475.769531 645.011719 477.140625 643.546875 478.835938 643.546875 C 480.53125 643.546875 481.921875 645.011719 481.921875 646.8125 C 481.914062 650.390625 475.769531 650.40625 475.777344 646.8125 Z M 475.769531 646.8125 " fill-opacity="1" fill-rule="nonzero"/></g></g></g></svg>