<svg xmlns="http://www.w3.org/2000/svg" xmlns:xlink="http://www.w3.org/1999/xlink" width="3780" zoomAndPan="magnify" viewBox="0 0 2835 2834.999876" height="3780" preserveAspectRatio="xMidYMid meet" version="1.0"><defs><clipPath id="ceb92eab04"><path d="M 0 0 L 2835 0 L 2835 2835 L 0 2835 Z M 0 0 " clip-rule="nonzero"/></clipPath><clipPath id="e6d48fe0fe"><path d="M 51.871094 802.320312 L 805 802.320312 L 805 1555.703125 L 51.871094 1555.703125 Z M 51.871094 802.320312 " clip-rule="nonzero"/></clipPath><clipPath id="c4fde8aab5"><path d="M 516.179688 0.546875 L 1269.5625 0.546875 L 1269.5625 753.933594 L 516.179688 753.933594 Z M 516.179688 0.546875 " clip-rule="nonzero"/></clipPath><clipPath id="4ced954ce1"><path d="M 980.484375 802.320312 L 1733.871094 802.320312 L 1733.871094 1555.703125 L 980.484375 1555.703125 Z M 980.484375 802.320312 " clip-rule="nonzero"/></clipPath><clipPath id="445aee5041"><path d="M 1346 295 L 1652 295 L 1652 769 L 1346 769 Z M 1346 295 " clip-rule="nonzero"/></clipPath><clipPath id="f9c7c4686a"><path d="M 1637.949219 283.691406 L 1656.414062 765.921875 L 1364.992188 777.082031 L 1346.527344 294.851562 Z M 1637.949219 283.691406 " clip-rule="nonzero"/></clipPath><clipPath id="146859ac62"><path d="M 1637.949219 283.691406 L 1656.414062 765.921875 L 1364.992188 777.082031 L 1346.527344 294.851562 Z M 1637.949219 283.691406 " clip-rule="nonzero"/></clipPath><clipPath id="87b4d961ee"><path d="M 1637.949219 283.691406 L 1656.414062 765.921875 L 1364.992188 777.082031 L 1346.527344 294.851562 Z M 1637.949219 283.691406 " clip-rule="nonzero"/></clipPath><clipPath id="f9a9aa8b89"><path d="M 644 1599 L 1167 1599 L 1167 1755 L 644 1755 Z M 644 1599 " clip-rule="nonzero"/></clipPath><clipPath id="27036665d7"><path d="M 1063.785156 1874.445312 L 614.988281 1697.046875 L 722.195312 1425.835938 L 1170.988281 1603.234375 Z M 1063.785156 1874.445312 " clip-rule="nonzero"/></clipPath><clipPath id="d6d1316188"><path d="M 1063.785156 1874.445312 L 614.988281 1697.046875 L 722.195312 1425.835938 L 1170.988281 1603.234375 Z M 1063.785156 1874.445312 " clip-rule="nonzero"/></clipPath><clipPath id="b3e2e328b9"><path d="M 1063.785156 1874.445312 L 614.988281 1697.046875 L 722.195312 1425.835938 L 1170.988281 1603.234375 Z M 1063.785156 1874.445312 " clip-rule="nonzero"/></clipPath><clipPath id="ba271a597f"><path d="M 130 322 L 431 322 L 431 793 L 130 793 Z M 130 322 " clip-rule="nonzero"/></clipPath><clipPath id="ecdcb56224"><path d="M 0.855469 572.515625 L 371.941406 264 L 558.382812 488.253906 L 187.296875 796.769531 Z M 0.855469 572.515625 " clip-rule="nonzero"/></clipPath><clipPath id="76f798998a"><path d="M 0.855469 572.515625 L 371.941406 264 L 558.382812 488.253906 L 187.296875 796.769531 Z M 0.855469 572.515625 " clip-rule="nonzero"/></clipPath><clipPath id="693ab8b73f"><path d="M 0.855469 572.515625 L 371.941406 264 L 558.382812 488.253906 L 187.296875 796.769531 Z M 0.855469 572.515625 " clip-rule="nonzero"/></clipPath><clipPath id="928e1e860f"><rect x="0" width="1736" y="0" height="1875"/></clipPath><clipPath id="26ac48fbfe"><rect x="0" width="2835" y="0" height="2835"/></clipPath></defs><rect x="-283.5" width="3402" fill="#ffffff" y="-283.499988" height="3401.999851" fill-opacity="1"/><g transform="matrix(1, 0, 0, 1, 0, 0)"><g clip-path="url(#26ac48fbfe)"><g clip-path="url(#ceb92eab04)"><rect x="-623.7" width="4082.4" fill="#ffffff" height="4082.399821" y="-623.699973" fill-opacity="1"/></g><g transform="matrix(1, 0, 0, 1, 550, 480)"><g clip-path="url(#928e1e860f)"><path fill="#000000" d="M 388.269531 1349.710938 L 464.957031 1349.710938 L 464.957031 1375.757812 L 388.269531 1375.757812 Z M 388.269531 1349.710938 " fill-opacity="1" fill-rule="nonzero"/><path fill="#000000" d="M 407.921875 968.667969 L 445.3125 968.667969 L 445.3125 994.714844 L 407.921875 994.714844 Z M 407.921875 968.667969 " fill-opacity="1" fill-rule="nonzero"/><path fill="#000000" d="M 312.664062 1018.691406 L 540.570312 1018.691406 L 540.570312 1313.886719 L 312.664062 1313.886719 Z M 312.664062 1018.691406 " fill-opacity="1" fill-rule="nonzero"/><g clip-path="url(#e6d48fe0fe)"><path fill="#000000" d="M 428.238281 802.3125 C 220.257812 802.3125 51.65625 970.929688 51.65625 1178.902344 C 51.65625 1386.878906 220.257812 1555.496094 428.238281 1555.496094 C 636.214844 1555.496094 804.828125 1386.878906 804.828125 1178.902344 C 804.828125 970.929688 636.214844 802.3125 428.238281 802.3125 Z M 567.296875 1369.472656 C 567.296875 1393.742188 547.628906 1413.414062 523.359375 1413.414062 L 329.882812 1413.414062 C 305.605469 1413.414062 285.933594 1393.742188 285.933594 1369.472656 L 285.933594 988.339844 C 285.933594 964.074219 305.605469 944.402344 329.882812 944.402344 L 523.359375 944.402344 C 547.628906 944.402344 567.296875 964.074219 567.296875 988.339844 Z M 567.296875 1369.472656 " fill-opacity="1" fill-rule="nonzero"/></g><path fill="#000000" d="M 710.550781 284.074219 L 710.550781 460.617188 L 808.492188 359.410156 Z M 710.550781 284.074219 " fill-opacity="1" fill-rule="nonzero"/><path fill="#000000" d="M 1032.5 261.722656 L 753.242188 261.722656 L 892.871094 368.953125 Z M 1032.5 261.722656 " fill-opacity="1" fill-rule="nonzero"/><path fill="#000000" d="M 843.648438 386.28125 L 740.183594 492.761719 L 1045.558594 492.761719 L 942.09375 386.28125 C 886.339844 428.972656 899.652344 429.226562 843.648438 386.28125 Z M 843.648438 386.28125 " fill-opacity="1" fill-rule="nonzero"/><path fill="#000000" d="M 1075.191406 460.617188 L 1075.191406 284.074219 L 977.25 359.410156 Z M 1075.191406 460.617188 " fill-opacity="1" fill-rule="nonzero"/><g clip-path="url(#c4fde8aab5)"><path fill="#000000" d="M 892.871094 0.546875 C 886.707031 0.546875 880.546875 0.699219 874.386719 1.003906 C 868.230469 1.304688 862.082031 1.757812 855.949219 2.363281 C 849.8125 2.964844 843.695312 3.722656 837.597656 4.625 C 831.5 5.53125 825.429688 6.582031 819.382812 7.785156 C 813.335938 8.988281 807.324219 10.339844 801.34375 11.835938 C 795.363281 13.335938 789.421875 14.980469 783.523438 16.769531 C 777.625 18.558594 771.773438 20.492188 765.96875 22.566406 C 760.164062 24.644531 754.414062 26.863281 748.71875 29.222656 C 743.019531 31.582031 737.386719 34.078125 731.8125 36.714844 C 726.242188 39.351562 720.734375 42.121094 715.300781 45.027344 C 709.863281 47.933594 704.5 50.972656 699.210938 54.140625 C 693.925781 57.308594 688.71875 60.609375 683.59375 64.03125 C 678.464844 67.457031 673.425781 71.007812 668.476562 74.679688 C 663.523438 78.351562 658.664062 82.144531 653.898438 86.054688 C 649.132812 89.964844 644.46875 93.988281 639.898438 98.128906 C 635.332031 102.269531 630.867188 106.519531 626.507812 110.878906 C 622.148438 115.238281 617.898438 119.703125 613.761719 124.269531 C 609.621094 128.835938 605.59375 133.503906 601.683594 138.269531 C 597.773438 143.035156 593.980469 147.894531 590.308594 152.84375 C 586.636719 157.796875 583.085938 162.835938 579.664062 167.960938 C 576.238281 173.085938 572.941406 178.292969 569.769531 183.582031 C 566.601562 188.871094 563.5625 194.234375 560.65625 199.667969 C 557.75 205.105469 554.980469 210.609375 552.34375 216.183594 C 549.710938 221.757812 547.210938 227.390625 544.851562 233.085938 C 542.492188 238.78125 540.273438 244.53125 538.199219 250.335938 C 536.121094 256.140625 534.1875 261.992188 532.398438 267.894531 C 530.609375 273.792969 528.964844 279.730469 527.46875 285.710938 C 525.96875 291.691406 524.621094 297.707031 523.417969 303.753906 C 522.214844 309.796875 521.160156 315.871094 520.253906 321.96875 C 519.351562 328.066406 518.597656 334.183594 517.992188 340.320312 C 517.386719 346.453125 516.933594 352.601562 516.632812 358.757812 C 516.328125 364.914062 516.179688 371.078125 516.179688 377.242188 C 516.179688 383.40625 516.328125 389.566406 516.632812 395.722656 C 516.933594 401.882812 517.386719 408.027344 517.992188 414.164062 C 518.597656 420.296875 519.351562 426.414062 520.253906 432.511719 C 521.160156 438.613281 522.214844 444.683594 523.417969 450.730469 C 524.621094 456.777344 525.96875 462.789062 527.46875 468.769531 C 528.964844 474.75 530.609375 480.691406 532.398438 486.589844 C 534.1875 492.488281 536.121094 498.339844 538.199219 504.144531 C 540.273438 509.949219 542.492188 515.699219 544.851562 521.394531 C 547.210938 527.089844 549.710938 532.726562 552.34375 538.296875 C 554.980469 543.871094 557.75 549.375 560.65625 554.8125 C 563.5625 560.25 566.601562 565.613281 569.769531 570.898438 C 572.941406 576.1875 576.238281 581.394531 579.664062 586.519531 C 583.085938 591.644531 586.636719 596.683594 590.308594 601.636719 C 593.980469 606.589844 597.773438 611.445312 601.683594 616.210938 C 605.59375 620.976562 609.621094 625.644531 613.761719 630.210938 C 617.898438 634.78125 622.148438 639.242188 626.507812 643.601562 C 630.867188 647.960938 635.332031 652.210938 639.898438 656.351562 C 644.46875 660.492188 649.132812 664.515625 653.898438 668.429688 C 658.664062 672.339844 663.523438 676.132812 668.476562 679.804688 C 673.425781 683.476562 678.464844 687.023438 683.59375 690.449219 C 688.71875 693.875 693.925781 697.171875 699.210938 700.339844 C 704.5 703.511719 709.863281 706.546875 715.300781 709.453125 C 720.738281 712.359375 726.242188 715.132812 731.8125 717.765625 C 737.386719 720.402344 743.019531 722.902344 748.71875 725.257812 C 754.414062 727.617188 760.164062 729.835938 765.96875 731.914062 C 771.773438 733.992188 777.625 735.925781 783.523438 737.714844 C 789.421875 739.503906 795.363281 741.148438 801.34375 742.644531 C 807.324219 744.144531 813.335938 745.492188 819.382812 746.695312 C 825.429688 747.898438 831.5 748.953125 837.597656 749.855469 C 843.695312 750.761719 849.8125 751.515625 855.949219 752.121094 C 862.082031 752.722656 868.230469 753.175781 874.386719 753.480469 C 880.546875 753.78125 886.707031 753.933594 892.871094 753.933594 C 899.035156 753.933594 905.195312 753.78125 911.355469 753.480469 C 917.511719 753.175781 923.660156 752.722656 929.792969 752.121094 C 935.929688 751.515625 942.046875 750.761719 948.144531 749.855469 C 954.242188 748.953125 960.3125 747.898438 966.359375 746.695312 C 972.40625 745.492188 978.417969 744.144531 984.398438 742.644531 C 990.378906 741.148438 996.320312 739.503906 1002.21875 737.714844 C 1008.117188 735.925781 1013.96875 733.992188 1019.773438 731.914062 C 1025.578125 729.835938 1031.328125 727.617188 1037.023438 725.257812 C 1042.71875 722.902344 1048.355469 720.402344 1053.929688 717.765625 C 1059.5 715.132812 1065.003906 712.359375 1070.441406 709.453125 C 1075.878906 706.546875 1081.242188 703.511719 1086.53125 700.339844 C 1091.816406 697.171875 1097.023438 693.875 1102.148438 690.449219 C 1107.277344 687.023438 1112.316406 683.476562 1117.265625 679.804688 C 1122.21875 676.132812 1127.078125 672.339844 1131.84375 668.429688 C 1136.609375 664.515625 1141.273438 660.492188 1145.84375 656.351562 C 1150.410156 652.210938 1154.875 647.960938 1159.234375 643.601562 C 1163.59375 639.242188 1167.84375 634.78125 1171.980469 630.210938 C 1176.121094 625.644531 1180.148438 620.976562 1184.058594 616.210938 C 1187.96875 611.445312 1191.761719 606.589844 1195.433594 601.636719 C 1199.105469 596.683594 1202.65625 591.644531 1206.078125 586.519531 C 1209.503906 581.394531 1212.800781 576.1875 1215.972656 570.898438 C 1219.140625 565.613281 1222.179688 560.25 1225.085938 554.8125 C 1227.992188 549.375 1230.761719 543.871094 1233.398438 538.296875 C 1236.03125 532.726562 1238.53125 527.089844 1240.890625 521.394531 C 1243.25 515.699219 1245.46875 509.949219 1247.542969 504.144531 C 1249.621094 498.339844 1251.554688 492.488281 1253.34375 486.589844 C 1255.132812 480.691406 1256.777344 474.75 1258.273438 468.769531 C 1259.773438 462.789062 1261.121094 456.777344 1262.324219 450.730469 C 1263.527344 444.683594 1264.582031 438.613281 1265.488281 432.511719 C 1266.390625 426.414062 1267.144531 420.296875 1267.75 414.164062 C 1268.355469 408.027344 1268.808594 401.882812 1269.109375 395.722656 C 1269.414062 389.566406 1269.5625 383.40625 1269.5625 377.242188 C 1269.5625 371.078125 1269.40625 364.917969 1269.105469 358.757812 C 1268.800781 352.601562 1268.34375 346.457031 1267.738281 340.324219 C 1267.132812 334.1875 1266.375 328.074219 1265.46875 321.976562 C 1264.5625 315.878906 1263.507812 309.808594 1262.304688 303.761719 C 1261.097656 297.714844 1259.746094 291.703125 1258.246094 285.722656 C 1256.75 279.746094 1255.105469 273.808594 1253.3125 267.910156 C 1251.523438 262.011719 1249.589844 256.160156 1247.511719 250.355469 C 1245.433594 244.550781 1243.214844 238.804688 1240.851562 233.109375 C 1238.492188 227.414062 1235.996094 221.78125 1233.359375 216.207031 C 1230.722656 210.636719 1227.949219 205.132812 1225.042969 199.695312 C 1222.136719 194.261719 1219.097656 188.898438 1215.929688 183.613281 C 1212.761719 178.324219 1209.460938 173.121094 1206.039062 167.992188 C 1202.613281 162.867188 1199.0625 157.832031 1195.390625 152.878906 C 1191.71875 147.929688 1187.925781 143.070312 1184.015625 138.304688 C 1180.105469 133.542969 1176.082031 128.875 1171.941406 124.308594 C 1167.800781 119.742188 1163.550781 115.277344 1159.191406 110.917969 C 1154.835938 106.558594 1150.371094 102.3125 1145.804688 98.171875 C 1141.238281 94.03125 1136.570312 90.007812 1131.804688 86.09375 C 1127.039062 82.183594 1122.183594 78.394531 1117.230469 74.722656 C 1112.28125 71.046875 1107.242188 67.5 1102.117188 64.074219 C 1096.992188 60.648438 1091.789062 57.351562 1086.5 54.183594 C 1081.214844 51.011719 1075.851562 47.972656 1070.414062 45.066406 C 1064.980469 42.160156 1059.476562 39.390625 1053.902344 36.753906 C 1048.332031 34.117188 1042.699219 31.617188 1037.003906 29.257812 C 1031.308594 26.898438 1025.558594 24.679688 1019.757812 22.601562 C 1013.953125 20.523438 1008.101562 18.589844 1002.203125 16.800781 C 996.304688 15.007812 990.367188 13.363281 984.386719 11.863281 C 978.410156 10.363281 972.394531 9.011719 966.351562 7.808594 C 960.304688 6.605469 954.234375 5.550781 948.136719 4.644531 C 942.039062 3.738281 935.921875 2.980469 929.789062 2.375 C 923.65625 1.769531 917.507812 1.3125 911.351562 1.007812 C 905.195312 0.703125 899.035156 0.550781 892.871094 0.546875 Z M 1118.886719 485.476562 C 1118.886719 487.148438 1118.804688 488.820312 1118.640625 490.484375 C 1118.476562 492.148438 1118.234375 493.800781 1117.910156 495.441406 C 1117.582031 497.082031 1117.179688 498.703125 1116.695312 500.304688 C 1116.210938 501.90625 1115.648438 503.476562 1115.011719 505.023438 C 1114.371094 506.570312 1113.660156 508.082031 1112.875 509.558594 C 1112.089844 511.035156 1111.230469 512.46875 1110.304688 513.859375 C 1109.378906 515.253906 1108.386719 516.597656 1107.328125 517.894531 C 1106.269531 519.1875 1105.152344 520.429688 1103.96875 521.613281 C 1102.789062 522.800781 1101.554688 523.925781 1100.265625 524.988281 C 1098.976562 526.054688 1097.636719 527.054688 1096.25 527.988281 C 1094.859375 528.921875 1093.429688 529.785156 1091.957031 530.578125 C 1090.484375 531.371094 1088.976562 532.089844 1087.433594 532.734375 C 1085.890625 533.382812 1084.320312 533.949219 1082.722656 534.441406 C 1081.125 534.933594 1079.503906 535.347656 1077.867188 535.679688 C 1076.226562 536.015625 1074.574219 536.265625 1072.914062 536.4375 C 1071.25 536.609375 1069.582031 536.699219 1067.90625 536.707031 L 717.835938 536.707031 C 716.160156 536.699219 714.492188 536.609375 712.828125 536.4375 C 711.167969 536.265625 709.515625 536.015625 707.875 535.679688 C 706.238281 535.347656 704.617188 534.933594 703.019531 534.441406 C 701.421875 533.949219 699.851562 533.382812 698.308594 532.738281 C 696.765625 532.089844 695.257812 531.371094 693.785156 530.578125 C 692.3125 529.785156 690.882812 528.921875 689.492188 527.988281 C 688.105469 527.054688 686.765625 526.054688 685.476562 524.988281 C 684.1875 523.925781 682.953125 522.800781 681.773438 521.613281 C 680.59375 520.429688 679.472656 519.1875 678.414062 517.894531 C 677.355469 516.597656 676.363281 515.253906 675.4375 513.863281 C 674.511719 512.46875 673.652344 511.035156 672.867188 509.558594 C 672.082031 508.082031 671.371094 506.570312 670.730469 505.023438 C 670.09375 503.480469 669.53125 501.90625 669.046875 500.304688 C 668.5625 498.703125 668.160156 497.082031 667.832031 495.441406 C 667.507812 493.800781 667.265625 492.148438 667.101562 490.484375 C 666.9375 488.820312 666.855469 487.148438 666.855469 485.476562 L 666.855469 269.003906 C 666.886719 267.339844 667 265.683594 667.1875 264.03125 C 667.378906 262.375 667.648438 260.734375 667.996094 259.109375 C 668.339844 257.480469 668.765625 255.875 669.265625 254.289062 C 669.765625 252.699219 670.339844 251.140625 670.992188 249.609375 C 671.640625 248.078125 672.363281 246.578125 673.152344 245.117188 C 673.945312 243.652344 674.808594 242.230469 675.734375 240.851562 C 676.664062 239.46875 677.65625 238.136719 678.710938 236.851562 C 679.769531 235.5625 680.882812 234.332031 682.058594 233.152344 C 683.230469 231.972656 684.457031 230.851562 685.738281 229.789062 C 687.019531 228.726562 688.347656 227.726562 689.722656 226.792969 C 691.101562 225.859375 692.519531 224.988281 693.976562 224.191406 C 695.4375 223.390625 696.929688 222.660156 698.460938 222.003906 C 699.988281 221.347656 701.542969 220.765625 703.128906 220.257812 C 704.714844 219.75 706.320312 219.316406 707.945312 218.960938 C 709.570312 218.605469 711.210938 218.332031 712.859375 218.132812 C 714.511719 217.933594 716.171875 217.816406 717.835938 217.773438 L 1067.90625 217.773438 C 1071.078125 217.820312 1074.214844 218.152344 1077.320312 218.777344 C 1080.429688 219.402344 1083.453125 220.300781 1086.394531 221.484375 C 1089.335938 222.664062 1092.144531 224.101562 1094.820312 225.800781 C 1097.492188 227.5 1099.992188 229.429688 1102.3125 231.585938 C 1104.910156 233.964844 1107.238281 236.582031 1109.292969 239.441406 C 1111.347656 242.300781 1113.089844 245.339844 1114.515625 248.558594 C 1115.941406 251.78125 1117.023438 255.113281 1117.761719 258.554688 C 1118.496094 262 1118.871094 265.484375 1118.886719 269.003906 Z M 1118.886719 485.476562 " fill-opacity="1" fill-rule="nonzero"/></g><g clip-path="url(#4ced954ce1)"><path fill="#000000" d="M 1357.089844 802.257812 C 1149.398438 802.257812 980.425781 971.230469 980.425781 1178.921875 C 980.425781 1386.613281 1149.398438 1555.582031 1357.089844 1555.582031 C 1564.78125 1555.582031 1733.75 1386.613281 1733.75 1178.921875 C 1733.75 971.230469 1564.78125 802.257812 1357.089844 802.257812 Z M 1357.089844 896.425781 C 1523.574219 896.425781 1639.585938 1035.902344 1639.585938 1161.105469 C 1639.585938 1309.960938 1538.300781 1321.5625 1507.226562 1321.5625 C 1477.734375 1321.5625 1451.066406 1311.054688 1430.273438 1294.253906 C 1411.476562 1309.058594 1385.1875 1321.5625 1351.023438 1321.5625 C 1278.894531 1321.5625 1228.535156 1263.292969 1228.535156 1179.902344 C 1228.535156 1093.984375 1277.761719 1036.277344 1351.023438 1036.277344 C 1367.523438 1036.277344 1384.171875 1040.460938 1399.613281 1047.464844 C 1406.429688 1040.574219 1415.886719 1036.277344 1426.355469 1036.277344 C 1447.1875 1036.277344 1464.023438 1053.117188 1464.023438 1073.945312 L 1464.023438 1210.410156 C 1464.023438 1230.148438 1483.421875 1246.230469 1507.1875 1246.230469 C 1524.25 1246.230469 1564.214844 1246.230469 1564.214844 1161.105469 C 1564.214844 1082.007812 1485.378906 971.757812 1357.050781 971.757812 C 1242.847656 971.757812 1149.886719 1064.71875 1149.886719 1178.921875 C 1149.886719 1293.125 1242.847656 1386.085938 1357.050781 1386.085938 C 1379.539062 1386.085938 1401.648438 1382.507812 1422.742188 1375.5 C 1442.589844 1368.835938 1463.835938 1379.570312 1470.386719 1399.308594 C 1476.980469 1419.042969 1466.320312 1440.402344 1446.582031 1446.953125 C 1417.769531 1456.558594 1387.671875 1461.417969 1357.089844 1461.417969 C 1201.300781 1461.417969 1074.589844 1334.707031 1074.589844 1178.921875 C 1074.589844 1023.132812 1201.300781 896.425781 1357.089844 896.425781 Z M 1351.0625 1246.230469 C 1372.945312 1246.230469 1385.375 1235.042969 1390.6875 1228.714844 C 1389.632812 1222.726562 1388.726562 1216.699219 1388.726562 1210.410156 L 1388.726562 1139.671875 C 1388.726562 1121.253906 1364.207031 1111.613281 1351.0625 1111.613281 C 1312.078125 1111.613281 1303.902344 1148.75 1303.902344 1179.902344 C 1303.902344 1199.863281 1308.5 1246.230469 1351.0625 1246.230469 Z M 1351.0625 1246.230469 " fill-opacity="1" fill-rule="nonzero"/></g><g clip-path="url(#445aee5041)"><g clip-path="url(#f9c7c4686a)"><g clip-path="url(#146859ac62)"><g clip-path="url(#87b4d961ee)"><path fill="#000000" d="M 1563.3125 709.226562 C 1565.609375 709.515625 1565.363281 706.386719 1565.84375 704.714844 C 1574.367188 674.015625 1583.382812 618.347656 1584.097656 586.671875 C 1586.554688 476.808594 1526.132812 342.832031 1410.042969 317.617188 C 1394.390625 314.21875 1365.167969 313.808594 1352.4375 308.582031 C 1339.476562 303.28125 1351.167969 295.089844 1361.890625 295.011719 C 1528.183594 294.046875 1615.746094 458.441406 1605.464844 607.9375 C 1603.195312 641.09375 1595.019531 673.789062 1590.324219 706.601562 C 1600.011719 694.195312 1609.734375 678.960938 1617.433594 665 C 1622.546875 655.71875 1632.566406 637.773438 1633.371094 627.589844 C 1633.9375 620.472656 1627.308594 609.316406 1638.082031 611.105469 C 1647.90625 612.738281 1651.617188 624.859375 1651.214844 633.417969 C 1649.773438 664.242188 1607.417969 720.246094 1591.222656 748.078125 C 1583.398438 761.523438 1586.984375 771.515625 1565.433594 767.335938 C 1549.433594 764.246094 1552.464844 752.574219 1549.769531 741.207031 C 1541.191406 704.882812 1529.640625 665.28125 1518.054688 629.765625 C 1515.964844 623.335938 1509.65625 611.707031 1508.6875 606.660156 C 1507.824219 602.191406 1511.039062 596.417969 1516.074219 598.777344 C 1534.546875 607.40625 1555.65625 688.652344 1563.355469 709.207031 Z M 1563.3125 709.226562 " fill-opacity="1" fill-rule="nonzero"/></g></g></g></g><g clip-path="url(#f9a9aa8b89)"><g clip-path="url(#27036665d7)"><g clip-path="url(#d6d1316188)"><g clip-path="url(#b3e2e328b9)"><path fill="#000000" d="M 704.390625 1634.683594 C 703.199219 1636.667969 706.164062 1637.707031 707.5 1638.820312 C 732.164062 1658.992188 779.480469 1689.671875 808.183594 1703.085938 C 907.746094 1749.601562 1054.707031 1748.28125 1124.558594 1652.191406 C 1133.976562 1639.234375 1146.125 1612.652344 1156.039062 1603.109375 C 1166.113281 1593.382812 1168.902344 1607.382812 1164.648438 1617.230469 C 1098.53125 1769.816406 912.789062 1783.71875 780.113281 1714.074219 C 750.679688 1698.636719 724.050781 1677.980469 695.910156 1660.464844 C 703.363281 1674.328125 713.386719 1689.367188 723.0625 1702.039062 C 729.496094 1710.457031 741.886719 1726.855469 750.878906 1731.695312 C 757.167969 1735.082031 770.046875 1733.507812 764.070312 1742.652344 C 758.617188 1750.984375 746.027344 1749.496094 738.359375 1745.679688 C 710.726562 1731.941406 676.535156 1670.613281 657.589844 1644.574219 C 648.4375 1631.996094 637.84375 1631.253906 650.351562 1613.210938 C 659.628906 1599.816406 669.085938 1607.292969 680.578125 1609.402344 C 717.277344 1616.1875 758.175781 1621.570312 795.351562 1625.28125 C 802.078125 1625.957031 815.261719 1624.867188 820.273438 1626.011719 C 824.710938 1627.023438 828.699219 1632.292969 824.511719 1635.949219 C 809.171875 1649.382812 726.308594 1635.964844 704.394531 1634.730469 Z M 704.390625 1634.683594 " fill-opacity="1" fill-rule="nonzero"/></g></g></g></g><g clip-path="url(#ba271a597f)"><g clip-path="url(#ecdcb56224)"><g clip-path="url(#76f798998a)"><g clip-path="url(#693ab8b73f)"><path fill="#000000" d="M 383.722656 372.367188 C 382.554688 370.371094 380.222656 372.472656 378.605469 373.109375 C 349.070312 385.058594 299.4375 411.835938 273.886719 430.574219 C 185.289062 495.578125 115.886719 625.128906 166.640625 732.539062 C 173.484375 747.019531 190.96875 770.4375 194.582031 783.714844 C 198.277344 797.222656 184.65625 792.949219 178.0625 784.492188 C 75.953125 653.234375 152.933594 483.625 277.726562 400.675781 C 305.402344 382.265625 336.308594 368.824219 365.183594 352.550781 C 349.445312 352.429688 331.4375 354.003906 315.675781 356.410156 C 305.203125 358.011719 284.867188 361.003906 276.304688 366.574219 C 270.316406 370.460938 265.511719 382.515625 260.363281 372.882812 C 255.667969 364.097656 263.019531 353.765625 270.050781 348.875 C 295.367188 331.230469 365.582031 330.683594 397.519531 326.566406 C 412.945312 324.574219 418.683594 315.640625 428.503906 335.273438 C 435.804688 349.839844 424.703125 354.550781 417.335938 363.617188 C 393.761719 392.554688 369.40625 425.84375 348.304688 456.675781 C 344.480469 462.25 339.105469 474.339844 335.695312 478.183594 C 332.675781 481.589844 326.140625 482.5625 324.945312 477.128906 C 320.527344 457.226562 372.078125 390.976562 383.683594 372.347656 Z M 383.722656 372.367188 " fill-opacity="1" fill-rule="nonzero"/></g></g></g></g></g></g></g></g></svg>