<svg xmlns="http://www.w3.org/2000/svg" xmlns:xlink="http://www.w3.org/1999/xlink" width="3780" zoomAndPan="magnify" viewBox="0 0 2835 2834.999876" height="3780" preserveAspectRatio="xMidYMid meet" version="1.0"><defs><clipPath id="9909269b45"><path d="M 349.105469 532.621094 L 2475 532.621094 L 2475 2355.121094 L 349.105469 2355.121094 Z M 349.105469 532.621094 " clip-rule="nonzero"/></clipPath><clipPath id="2a6769c2b7"><path d="M 1185 532.621094 L 2485.855469 532.621094 L 2485.855469 2355.121094 L 1185 2355.121094 Z M 1185 532.621094 " clip-rule="nonzero"/></clipPath><clipPath id="42c32b886c"><path d="M 349.105469 532.621094 L 1780 532.621094 L 1780 1563 L 349.105469 1563 Z M 349.105469 532.621094 " clip-rule="nonzero"/></clipPath><clipPath id="8263d63f18"><path d="M 349.105469 1591 L 1169 1591 L 1169 2355.121094 L 349.105469 2355.121094 Z M 349.105469 1591 " clip-rule="nonzero"/></clipPath></defs><rect x="-283.5" width="3402" fill="#ffffff" y="-283.499988" height="3401.999851" fill-opacity="1"/><rect x="-283.5" width="3402" fill="#ffffff" y="-283.499988" height="3401.999851" fill-opacity="1"/><g clip-path="url(#9909269b45)"><path fill="#ff3131" d="M 1926.921875 532.625 C 1923.070312 550.316406 2000.765625 533.449219 2013.574219 568.601562 C 2029.070312 611.132812 1975.933594 639.320312 1975.265625 673.589844 C 1974.089844 733.941406 2188.625 800.992188 2108.105469 909.527344 C 1990.183594 1068.484375 2093.191406 1003.902344 2039.046875 1131.695312 C 2035.476562 1140.125 2033.644531 1162.792969 2038.261719 1169.074219 C 2044.035156 1176.921875 2062.09375 1184.949219 2072.933594 1186.429688 L 2209.078125 1204.960938 C 2214.28125 1266.761719 2206.046875 1319.945312 2188.371094 1378.609375 L 2198.445312 1393.496094 C 2210.976562 1412.027344 2247.914062 1339.476562 2277.550781 1356.1875 C 2325.960938 1411.15625 2377.53125 1469.496094 2421.992188 1527.875 C 2434.546875 1544.359375 2438.917969 1584.636719 2455.773438 1600.425781 C 2481.078125 1624.140625 2476.589844 1658.011719 2464.339844 1685.410156 L 2414.585938 1796.742188 C 2398.289062 1833.214844 2352.039062 1869.886719 2316.691406 1895.652344 L 2224.933594 1898.535156 L 2204.617188 1943.710938 L 2124.882812 1925.523438 C 2090.535156 1991.929688 2114.28125 2025.964844 2098.550781 2071.085938 C 2095.113281 2080.953125 2066.203125 2079.257812 2054.65625 2086.117188 C 1985.429688 2127.21875 1982.773438 2184.199219 1930 2195.390625 C 1894.492188 2202.914062 1926.921875 2042.015625 1827.472656 2028.050781 C 1804.449219 2024.816406 1757.878906 2043.476562 1733.949219 2032.019531 C 1680.761719 2006.5625 1634.015625 1940.417969 1640.691406 1889.222656 L 1680.882812 1877.101562 C 1689.699219 1874.445312 1691.21875 1845.105469 1685.054688 1837.324219 C 1661.664062 1807.785156 1606.261719 1781.121094 1568.40625 1777.601562 L 1492.023438 1872.035156 C 1473.34375 1895.125 1475.628906 1949.082031 1465.523438 1979.640625 C 1444.746094 2042.429688 1394.207031 2085.773438 1363.308594 2141.792969 C 1335.574219 2192.078125 1320.03125 2249.210938 1297.921875 2305.816406 L 1207.371094 2334.011719 C 1200.292969 2336.214844 1186.042969 2351.257812 1185.820312 2355.425781 L 1168.375 2355.425781 L 1115.875 2300.308594 L 1072.097656 2293.957031 C 1061.082031 2292.359375 1063.523438 2262.285156 1059.957031 2246.476562 C 1047.246094 2190.066406 968.824219 2149.210938 917.484375 2182.816406 C 857.125 2222.320312 788.050781 2233.492188 730.035156 2195.996094 C 699.027344 2175.945312 687.269531 2141.957031 685.160156 2103.972656 L 628.996094 2058.21875 C 615.921875 2047.5625 567.738281 2075.015625 560.230469 2060.03125 C 544.8125 2029.226562 531.613281 2010.675781 506.878906 1989.085938 C 500.390625 1842.09375 485.847656 1910.519531 467.019531 1782.207031 L 405.457031 1756.394531 L 414.199219 1667.820312 L 349.085938 1591.007812 L 349.085938 1561.605469 C 377.457031 1510.617188 333.9375 1427.335938 393.265625 1348.953125 L 451.476562 1378.539062 L 501.554688 1401.511719 L 501.644531 1556.460938 L 540.238281 1562.144531 C 546.578125 1563.078125 542.835938 1539.675781 544.136719 1532.628906 L 550.78125 1496.523438 C 552.28125 1488.390625 589.914062 1491.371094 590.609375 1499.542969 L 595.949219 1562.105469 C 782.066406 1562.3125 621.15625 1515.632812 800.351562 1562.320312 L 752.617188 1408.8125 C 749.410156 1398.511719 735.296875 1382.8125 725.625 1381.8125 C 680.839844 1377.160156 679.210938 1506.214844 640.03125 1545.484375 C 636.074219 1499.472656 634.210938 1437.714844 633.367188 1398.699219 C 633.171875 1389.832031 604.203125 1376.148438 601.203125 1384.273438 C 586.808594 1423.230469 598.734375 1450.867188 587.691406 1450.828125 L 551.496094 1450.71875 C 538.257812 1450.679688 553.359375 1387.3125 538.679688 1386.117188 L 510.171875 1383.785156 C 493.675781 1382.429688 484.984375 1342.527344 490.402344 1324.386719 C 504.976562 1275.628906 593.21875 1270.179688 619.863281 1267.289062 C 638.542969 1265.261719 666.582031 1234.246094 690.582031 1244.242188 C 726.773438 1259.3125 758.957031 1225.296875 783.203125 1226.199219 L 874.792969 1229.589844 C 949.371094 1232.351562 967.179688 1190.398438 996.097656 1138.949219 C 1037.777344 1064.808594 1201.703125 1044.328125 1177.742188 952.511719 L 1125.421875 974.71875 C 1010.0625 947.296875 1080.214844 720.90625 1164.160156 674.394531 C 1212.347656 647.699219 1257.644531 662.191406 1288.816406 700.980469 C 1305.28125 721.472656 1331.496094 695.367188 1346.882812 688.105469 C 1400.109375 662.96875 1445.71875 640.867188 1474.832031 590.121094 C 1495.101562 554.804688 1537.632812 585.273438 1564.574219 579.410156 L 1779.902344 532.605469 L 1926.902344 532.605469 Z M 1257.222656 1234.390625 L 1368.992188 1238.585938 L 1592.621094 847.277344 L 1270.433594 845.679688 L 1271.609375 931.675781 L 1431.144531 934.242188 Z M 1824.238281 1236.8125 L 1825.980469 1166.546875 L 1871.777344 1154.285156 L 1872.335938 1086.996094 L 1824.863281 1075.109375 L 1824.972656 847.328125 L 1691.652344 846.082031 L 1553.636719 1071.199219 C 1539.289062 1094.601562 1538.820312 1130.480469 1542.632812 1159.507812 L 1730.8125 1159.890625 L 1731.046875 1238.773438 Z M 1356.792969 1508.441406 C 1354.800781 1543.183594 1390.671875 1568.289062 1422.558594 1563.871094 C 1456.78125 1559.128906 1483.859375 1531.785156 1472.882812 1488.910156 C 1467.347656 1467.269531 1436.566406 1454.304688 1402.304688 1430.433594 L 1468.855469 1432.5 C 1466.386719 1400.210938 1441.308594 1379.324219 1412.222656 1380.257812 C 1385.9375 1381.097656 1363.328125 1402.511719 1361.066406 1430.148438 C 1357.074219 1479.109375 1406.28125 1475.40625 1431.578125 1507.589844 C 1465.308594 1550.492188 1347.980469 1478.648438 1356.792969 1508.441406 Z M 2001.875 1382.980469 C 1977.382812 1387.058594 1963.074219 1390.195312 1962.507812 1396.425781 L 1956.304688 1465.222656 C 1937.417969 1425.867188 1919.179688 1392.917969 1882.039062 1385.390625 C 1837.925781 1376.453125 1809.957031 1399.257812 1772.1875 1426.589844 L 1779.214844 1389.234375 C 1780.46875 1382.550781 1763.027344 1379.109375 1756.300781 1379.707031 C 1749.578125 1380.304688 1737.789062 1389.449219 1734.820312 1396.878906 L 1703.746094 1474.769531 L 1669.453125 1388.546875 C 1665.132812 1377.6875 1629.363281 1380.078125 1628.625 1391.332031 L 1681.695312 1557.914062 C 1689.074219 1563.164062 1721.785156 1561.332031 1725.109375 1552.238281 L 1769.140625 1431.875 C 1768.367188 1495.203125 1783.378906 1545.171875 1836.847656 1558.371094 C 1894.53125 1572.621094 1935.839844 1537.527344 1955.007812 1480.207031 L 1964.652344 1558.039062 L 2002.890625 1557.726562 L 2001.84375 1382.96875 Z M 907.359375 1397.808594 L 904.164062 1499.042969 C 903.878906 1507.921875 879.507812 1521.984375 871.824219 1517.625 C 864.140625 1513.261719 853.578125 1494.300781 853.507812 1485.441406 L 852.734375 1389.644531 L 809.023438 1383.480469 L 811.113281 1493.28125 C 811.875 1533.804688 847.128906 1563.253906 883.164062 1561.058594 C 913.964844 1559.175781 946.53125 1530.570312 946.609375 1494.496094 L 946.835938 1384.292969 C 930.507812 1383.65625 907.644531 1388.664062 907.359375 1397.808594 Z M 1038.71875 1556.316406 L 1041.207031 1429.628906 C 1055.390625 1425.453125 1074.726562 1424.367188 1074.097656 1418.191406 L 1070.640625 1384.304688 L 970.128906 1385.871094 C 963.472656 1385.980469 956.574219 1414.234375 962.796875 1416.59375 L 995.011719 1428.84375 L 996.667969 1561.480469 Z M 1159.566406 1493.066406 C 1176.304688 1490.996094 1190.671875 1487.125 1189.933594 1479.421875 C 1189.152344 1471.210938 1190.140625 1455.84375 1184.339844 1455.199219 L 1153.164062 1451.746094 L 1132.683594 1449.484375 C 1128.351562 1449.003906 1128.253906 1428.363281 1132.605469 1428.148438 L 1153.261719 1427.128906 L 1194.882812 1425.140625 C 1203.617188 1424.730469 1204.5 1385.921875 1195.707031 1385.8125 L 1087.113281 1384.527344 L 1087.855469 1561.683594 L 1199.539062 1561.066406 C 1201.949219 1552.1875 1203.921875 1523.367188 1195.050781 1522.730469 L 1153.585938 1519.742188 L 1132.496094 1518.230469 C 1127.941406 1517.910156 1126.382812 1497.152344 1130.917969 1496.59375 L 1159.585938 1493.054688 Z M 1635.574219 1559.539062 L 1588.035156 1405.972656 C 1585.203125 1396.828125 1568.789062 1381.011719 1559.476562 1381.941406 C 1550.167969 1382.871094 1533.652344 1397.769531 1529.714844 1409.785156 L 1481.449219 1556.804688 C 1491.789062 1560.84375 1516.652344 1560.019531 1526.050781 1552.992188 C 1577.929688 1514.234375 1588.496094 1577.101562 1635.585938 1559.539062 Z M 2093.964844 1493.585938 C 2103.019531 1492.9375 2123.621094 1492.613281 2123.464844 1486.058594 L 2122.847656 1460.746094 C 2122.6875 1454.246094 2101.394531 1453.285156 2093.71875 1451.816406 L 2068.296875 1446.976562 C 2063.191406 1446.003906 2067.042969 1428.960938 2072.277344 1428.382812 L 2093.835938 1426.011719 L 2132.703125 1421.699219 C 2140.347656 1420.847656 2137.035156 1395.4375 2134.242188 1386.800781 L 2024.296875 1383.84375 L 2023.894531 1561.871094 L 2132.382812 1560.734375 C 2136.300781 1550.238281 2141.28125 1527.101562 2132.019531 1525.679688 L 2094.289062 1519.886719 L 2068.09375 1515.917969 C 2062.683594 1515.09375 2065.945312 1495.582031 2071.484375 1495.191406 L 2093.957031 1493.585938 Z M 1338.199219 1493.457031 L 1337.820312 1452.804688 L 1222.128906 1452.667969 L 1221.550781 1492.929688 L 1338.210938 1493.445312 Z M 899.625 1754.304688 C 855.191406 1776.867188 849.636719 1821.691406 868.816406 1853.699219 C 887.375 1884.675781 926.703125 1893.007812 959.847656 1880.855469 C 995.777344 1867.683594 1006.085938 1820.996094 990.71875 1785.695312 C 978.117188 1756.757812 934.242188 1736.734375 899.636719 1754.304688 Z M 722.214844 2038.746094 C 706.046875 1983.667969 690.199219 1945.300781 665.121094 1895.171875 C 640.316406 1943.832031 623.292969 1985.746094 609.90625 2031.296875 C 631.984375 2008.382812 653.292969 1988.785156 676.96875 1996.105469 C 692.570312 2000.925781 705.929688 2020.988281 722.214844 2038.753906 Z M 808.046875 1965.546875 L 815.109375 2038.546875 C 843.914062 2004.140625 833.75 1958.148438 808.066406 1935.746094 L 741.445312 1937.949219 C 740.875 1966.4375 741.933594 1999.878906 747.6875 2040.058594 C 762.808594 2015.8125 760.976562 1985.324219 760.691406 1963.285156 L 784.996094 1944.957031 C 790.386719 1940.890625 807.339844 1958.375 808.035156 1965.539062 Z M 925.921875 1975.121094 L 932.347656 2044.769531 C 955.957031 2009.511719 940.433594 1966.539062 927.753906 1936.832031 L 858.515625 1938.167969 L 862.289062 2042.773438 L 870.648438 1974.789062 C 872.15625 1962.519531 892.082031 1944.632812 902.339844 1946.144531 C 910.878906 1947.398438 924.585938 1966.007812 925.921875 1975.121094 Z M 981.632812 1991.183594 L 1056.273438 1983.914062 C 1052.578125 1955.003906 1035.976562 1935.089844 1010.261719 1934.1875 C 993.882812 1933.617188 970.914062 1951.710938 964.621094 1972.003906 C 957.574219 1994.75 973.390625 2027.671875 994.03125 2035.746094 C 1008.722656 2041.496094 1039.492188 2031.050781 1048.410156 2020.847656 L 995.804688 2020.964844 C 987.210938 2020.984375 979.734375 1995.191406 981.632812 1991.183594 Z M 1153.714844 2020.183594 C 1122.304688 2022.957031 1100.304688 2020.210938 1090.386719 2002.269531 C 1084.25 1991.15625 1088.738281 1962.175781 1099.53125 1954.582031 C 1110.144531 1947.113281 1133.28125 1949.339844 1159.917969 1950.082031 C 1153.636719 1927.875 1104.683594 1927.953125 1087.613281 1943.753906 C 1066.367188 1963.421875 1068.472656 2006.160156 1090.113281 2025.9375 C 1098.902344 2033.972656 1118.550781 2043.605469 1128.339844 2043.605469 C 1138.132812 2043.605469 1154.078125 2024.003906 1153.703125 2020.183594 Z M 1262.71875 2015.3125 L 1256.3125 1932.558594 L 1249.019531 1991.519531 C 1247.539062 2003.464844 1235.839844 2022.476562 1226.332031 2024.671875 C 1216.828125 2026.867188 1194.609375 2012.84375 1192.875 2003.347656 L 1187.101562 1934.050781 C 1181.371094 1962.078125 1178.773438 2002.738281 1186.945312 2028.679688 C 1191.367188 2042.722656 1232.449219 2036.707031 1251.707031 2035.597656 C 1237.199219 2054.128906 1213.71875 2060.714844 1181.125 2067.339844 C 1196.019531 2075.269531 1222.933594 2080.464844 1235.484375 2071.664062 C 1252.734375 2059.558594 1264.179688 2034 1262.730469 2015.320312 Z M 1262.71875 2015.3125 " fill-opacity="1" fill-rule="nonzero"/></g><g clip-path="url(#2a6769c2b7)"><path fill="#ffffff" d="M 1926.921875 532.625 L 2485.527344 532.625 L 2485.527344 2355.445312 L 1185.820312 2355.445312 C 1186.042969 2351.28125 1200.285156 2336.226562 1207.371094 2334.03125 L 1297.921875 2305.835938 C 1320.023438 2249.230469 1335.566406 2192.085938 1363.308594 2141.8125 C 1394.21875 2085.785156 1444.746094 2042.4375 1465.523438 1979.660156 C 1475.628906 1949.113281 1473.355469 1895.152344 1492.023438 1872.054688 L 1568.40625 1777.621094 C 1606.261719 1781.140625 1661.664062 1807.804688 1685.054688 1837.34375 C 1691.21875 1845.132812 1689.699219 1874.464844 1680.882812 1877.121094 L 1640.691406 1889.242188 C 1634.015625 1940.441406 1680.761719 2006.582031 1733.949219 2032.042969 C 1757.871094 2043.496094 1804.449219 2024.839844 1827.472656 2028.070312 C 1926.921875 2042.039062 1894.492188 2202.933594 1930 2195.410156 C 1982.773438 2184.21875 1985.429688 2127.238281 2054.65625 2086.136719 C 2066.203125 2079.289062 2095.113281 2080.972656 2098.550781 2071.105469 C 2114.28125 2025.984375 2090.535156 1991.949219 2124.882812 1925.542969 L 2204.617188 1943.734375 L 2224.933594 1898.554688 L 2316.691406 1895.671875 C 2352.039062 1869.910156 2398.289062 1833.226562 2414.585938 1796.761719 L 2464.339844 1685.429688 C 2476.589844 1658.03125 2481.070312 1624.160156 2455.773438 1600.445312 C 2438.929688 1584.648438 2434.546875 1544.367188 2421.992188 1527.894531 C 2377.53125 1469.515625 2325.964844 1411.164062 2277.550781 1356.207031 C 2247.914062 1339.496094 2210.988281 1412.058594 2198.445312 1393.515625 L 2188.371094 1378.628906 C 2206.050781 1319.964844 2214.28125 1266.78125 2209.078125 1204.980469 L 2072.933594 1186.449219 C 2062.09375 1184.96875 2044.035156 1176.953125 2038.261719 1169.09375 C 2033.644531 1162.8125 2035.476562 1140.144531 2039.046875 1131.714844 C 2093.191406 1003.921875 1990.183594 1068.503906 2108.105469 909.546875 C 2188.625 801.011719 1974.089844 733.960938 1975.265625 673.609375 C 1975.933594 639.339844 2029.058594 611.152344 2013.574219 568.621094 C 2000.765625 533.46875 1923.082031 550.335938 1926.921875 532.644531 Z M 1926.921875 532.625 " fill-opacity="1" fill-rule="nonzero"/></g><g clip-path="url(#42c32b886c)"><path fill="#ffffff" d="M 1779.921875 532.625 L 1564.59375 579.429688 C 1537.652344 585.28125 1495.121094 554.8125 1474.855469 590.144531 C 1445.738281 640.886719 1400.136719 662.988281 1346.902344 688.125 C 1331.515625 695.386719 1305.300781 721.503906 1288.835938 701 C 1257.671875 662.210938 1212.367188 647.707031 1164.179688 674.414062 C 1080.242188 720.925781 1010.082031 947.316406 1125.441406 974.738281 L 1177.761719 952.53125 C 1201.726562 1044.347656 1037.796875 1064.832031 996.117188 1138.96875 C 967.199219 1190.410156 949.390625 1232.371094 874.8125 1229.609375 L 783.222656 1226.21875 C 758.976562 1225.316406 726.792969 1259.332031 690.601562 1244.261719 C 666.601562 1234.265625 638.5625 1265.28125 619.882812 1267.308594 C 593.238281 1270.199219 504.988281 1275.648438 490.421875 1324.40625 C 485.003906 1342.546875 493.695312 1382.453125 510.191406 1383.804688 L 538.699219 1386.136719 C 553.378906 1387.332031 538.269531 1450.699219 551.515625 1450.738281 L 587.710938 1450.847656 C 598.753906 1450.875 586.828125 1423.238281 601.222656 1384.292969 C 604.222656 1376.167969 633.191406 1389.851562 633.386719 1398.71875 C 634.230469 1437.734375 636.09375 1499.484375 640.050781 1545.503906 C 679.234375 1506.238281 680.859375 1377.1875 725.644531 1381.832031 C 735.328125 1382.84375 749.429688 1398.535156 752.636719 1408.832031 L 800.371094 1562.34375 C 621.175781 1515.652344 782.085938 1562.332031 595.972656 1562.125 L 590.628906 1499.5625 C 589.933594 1491.390625 552.300781 1488.410156 550.800781 1496.542969 L 544.15625 1532.648438 C 542.863281 1539.695312 546.597656 1563.097656 540.257812 1562.164062 L 501.664062 1556.480469 L 501.578125 1401.53125 L 451.496094 1378.5625 L 393.285156 1348.972656 C 333.957031 1427.363281 377.476562 1510.644531 349.105469 1561.625 L 349.105469 532.625 Z M 1779.921875 532.625 " fill-opacity="1" fill-rule="nonzero"/></g><g clip-path="url(#8263d63f18)"><path fill="#ffffff" d="M 1168.375 2355.445312 L 349.105469 2355.445312 L 349.105469 1591.035156 L 414.21875 1667.851562 L 405.476562 1756.421875 L 467.039062 1782.238281 C 485.867188 1910.550781 500.410156 1842.125 506.898438 1989.117188 C 531.632812 2010.695312 544.832031 2029.257812 560.25 2060.058594 C 567.757812 2075.054688 615.933594 2047.59375 629.015625 2058.246094 L 685.179688 2104.003906 C 687.289062 2141.988281 699.039062 2175.984375 730.054688 2196.027344 C 788.0625 2233.53125 857.132812 2222.359375 917.503906 2182.84375 C 968.84375 2149.242188 1047.265625 2190.097656 1059.976562 2246.507812 C 1063.535156 2262.3125 1061.09375 2292.390625 1072.117188 2293.988281 L 1115.894531 2300.339844 L 1168.394531 2355.453125 Z M 1168.375 2355.445312 " fill-opacity="1" fill-rule="nonzero"/></g><path fill="#ffffff" d="M 1824.238281 1236.8125 L 1731.046875 1238.773438 L 1730.8125 1159.890625 L 1542.632812 1159.507812 C 1538.828125 1130.472656 1539.289062 1094.601562 1553.636719 1071.199219 L 1691.652344 846.082031 L 1824.972656 847.328125 L 1824.863281 1075.109375 L 1872.335938 1086.996094 L 1871.777344 1154.285156 L 1825.980469 1166.546875 Z M 1732.292969 1081.6875 L 1728.84375 931.363281 L 1640.445312 1080.480469 L 1732.292969 1081.675781 Z M 1732.292969 1081.6875 " fill-opacity="1" fill-rule="nonzero"/><path fill="#ffffff" d="M 1257.222656 1234.390625 L 1431.144531 934.242188 L 1271.609375 931.675781 L 1270.433594 845.671875 L 1592.621094 847.277344 L 1368.992188 1238.585938 Z M 1257.222656 1234.390625 " fill-opacity="1" fill-rule="nonzero"/><path fill="#ffffff" d="M 2001.875 1382.980469 L 2002.921875 1557.734375 L 1964.683594 1558.050781 L 1955.039062 1480.21875 C 1935.871094 1537.539062 1894.5625 1572.621094 1836.878906 1558.382812 C 1783.410156 1545.171875 1768.394531 1495.210938 1769.171875 1431.882812 L 1725.136719 1552.246094 C 1721.816406 1561.34375 1689.09375 1563.175781 1681.722656 1557.921875 L 1628.65625 1391.339844 C 1629.390625 1380.078125 1665.160156 1377.699219 1669.484375 1388.558594 L 1703.773438 1474.777344 L 1734.851562 1396.886719 C 1737.808594 1389.457031 1749.609375 1380.324219 1756.332031 1379.71875 C 1763.054688 1379.109375 1780.5 1382.558594 1779.246094 1389.242188 L 1772.21875 1426.601562 C 1809.988281 1399.257812 1837.949219 1376.464844 1882.066406 1385.402344 C 1919.210938 1392.925781 1937.449219 1425.867188 1956.332031 1465.234375 L 1962.535156 1396.4375 C 1963.09375 1390.203125 1977.402344 1387.066406 2001.902344 1382.992188 Z M 2001.875 1382.980469 " fill-opacity="1" fill-rule="nonzero"/><path fill="#ffffff" d="M 1635.574219 1559.539062 C 1588.484375 1577.101562 1577.921875 1514.234375 1526.039062 1552.992188 C 1516.640625 1560.019531 1491.777344 1560.84375 1481.4375 1556.804688 L 1529.703125 1409.785156 C 1533.644531 1397.769531 1550.167969 1382.871094 1559.46875 1381.941406 C 1568.769531 1381.011719 1585.191406 1396.828125 1588.023438 1405.972656 L 1635.566406 1559.539062 Z M 1635.574219 1559.539062 " fill-opacity="1" fill-rule="nonzero"/><path fill="#ffffff" d="M 1159.566406 1493.066406 L 1130.898438 1496.601562 C 1126.363281 1497.160156 1127.921875 1517.917969 1132.476562 1518.242188 L 1153.566406 1519.75 L 1195.03125 1522.738281 C 1203.902344 1523.375 1201.929688 1552.207031 1199.519531 1561.078125 L 1087.839844 1561.695312 L 1087.09375 1384.539062 L 1195.6875 1385.824219 C 1204.488281 1385.929688 1203.597656 1424.730469 1194.863281 1425.148438 L 1153.242188 1427.140625 L 1132.585938 1428.160156 C 1128.234375 1428.375 1128.339844 1449.023438 1132.664062 1449.492188 L 1153.144531 1451.757812 L 1184.320312 1455.207031 C 1190.121094 1455.855469 1189.132812 1471.21875 1189.914062 1479.433594 C 1190.652344 1487.136719 1176.285156 1491.007812 1159.546875 1493.074219 Z M 1159.566406 1493.066406 " fill-opacity="1" fill-rule="nonzero"/><path fill="#ffffff" d="M 907.359375 1397.808594 C 907.644531 1388.675781 930.515625 1383.65625 946.835938 1384.292969 L 946.609375 1494.496094 C 946.53125 1530.570312 913.972656 1559.175781 883.164062 1561.058594 C 847.128906 1563.261719 811.875 1533.8125 811.113281 1493.28125 L 809.023438 1383.480469 L 852.734375 1389.644531 L 853.507812 1485.441406 C 853.578125 1494.300781 864.152344 1513.261719 871.824219 1517.625 C 879.496094 1521.984375 903.878906 1507.921875 904.164062 1499.042969 Z M 907.359375 1397.808594 " fill-opacity="1" fill-rule="nonzero"/><path fill="#ffffff" d="M 899.625 1754.304688 C 934.230469 1736.746094 978.117188 1756.757812 990.710938 1785.695312 C 1006.074219 1820.996094 995.765625 1867.675781 959.839844 1880.855469 C 926.695312 1893.007812 887.367188 1884.675781 868.804688 1853.699219 C 849.625 1821.691406 855.183594 1776.867188 899.617188 1754.304688 Z M 899.625 1754.304688 " fill-opacity="1" fill-rule="nonzero"/><path fill="#ffffff" d="M 2093.964844 1493.585938 L 2071.492188 1495.191406 C 2065.945312 1495.582031 2062.691406 1515.105469 2068.101562 1515.917969 L 2094.296875 1519.886719 L 2132.027344 1525.679688 C 2141.289062 1527.101562 2136.3125 1550.238281 2132.390625 1560.734375 L 2023.90625 1561.871094 L 2024.304688 1383.84375 L 2134.253906 1386.800781 C 2137.046875 1395.4375 2140.359375 1420.859375 2132.714844 1421.699219 L 2093.847656 1426.011719 L 2072.289062 1428.382812 C 2067.054688 1428.960938 2063.203125 1445.996094 2068.308594 1446.976562 L 2093.730469 1451.816406 C 2101.402344 1453.277344 2122.699219 1454.246094 2122.855469 1460.746094 L 2123.472656 1486.058594 C 2123.628906 1492.613281 2103.03125 1492.9375 2093.976562 1493.585938 Z M 2093.964844 1493.585938 " fill-opacity="1" fill-rule="nonzero"/><path fill="#ffffff" d="M 1356.792969 1508.441406 C 1347.980469 1478.648438 1465.308594 1550.503906 1431.578125 1507.589844 C 1406.273438 1475.40625 1357.066406 1479.109375 1361.066406 1430.148438 C 1363.320312 1402.511719 1385.9375 1381.089844 1412.222656 1380.257812 C 1441.296875 1379.324219 1466.375 1400.210938 1468.855469 1432.5 L 1402.304688 1430.433594 C 1436.566406 1454.304688 1467.347656 1467.28125 1472.882812 1488.910156 C 1483.859375 1531.785156 1456.792969 1559.128906 1422.558594 1563.871094 C 1390.671875 1568.289062 1354.800781 1543.183594 1356.792969 1508.441406 Z M 1356.792969 1508.441406 " fill-opacity="1" fill-rule="nonzero"/><path fill="#ffffff" d="M 1038.71875 1556.316406 L 996.667969 1561.480469 L 995.011719 1428.84375 L 962.796875 1416.59375 C 956.574219 1414.234375 963.464844 1385.96875 970.128906 1385.871094 L 1070.640625 1384.304688 L 1074.097656 1418.191406 C 1074.726562 1424.367188 1055.398438 1425.453125 1041.207031 1429.628906 Z M 1038.71875 1556.316406 " fill-opacity="1" fill-rule="nonzero"/><path fill="#ffffff" d="M 722.214844 2038.746094 C 705.929688 2020.976562 692.570312 2000.917969 676.96875 1996.09375 C 653.292969 1988.773438 631.984375 2008.375 609.90625 2031.285156 C 623.285156 1985.734375 640.316406 1943.832031 665.121094 1895.164062 C 690.199219 1945.289062 706.046875 1983.667969 722.214844 2038.734375 Z M 722.214844 2038.746094 " fill-opacity="1" fill-rule="nonzero"/><path fill="#ffffff" d="M 981.632812 1991.183594 C 979.734375 1995.191406 987.210938 2020.988281 995.804688 2020.96875 L 1048.410156 2020.847656 C 1039.503906 2031.050781 1008.730469 2041.5 994.03125 2035.746094 C 973.390625 2027.660156 957.566406 1994.75 964.621094 1972.003906 C 970.914062 1951.710938 993.882812 1933.617188 1010.261719 1934.1875 C 1035.976562 1935.078125 1052.578125 1955.003906 1056.273438 1983.914062 Z M 981.632812 1991.183594 " fill-opacity="1" fill-rule="nonzero"/><path fill="#ffffff" d="M 1338.199219 1493.457031 L 1221.539062 1492.9375 L 1222.128906 1452.667969 L 1337.820312 1452.804688 Z M 1338.199219 1493.457031 " fill-opacity="1" fill-rule="nonzero"/><path fill="#ffffff" d="M 1262.71875 2015.3125 C 1264.171875 2033.992188 1252.722656 2059.550781 1235.476562 2071.652344 C 1222.921875 2080.453125 1196.011719 2075.269531 1181.113281 2067.332031 C 1213.710938 2060.707031 1237.203125 2054.121094 1251.695312 2035.589844 C 1232.4375 2036.695312 1191.355469 2042.714844 1186.9375 2028.671875 C 1178.761719 2002.730469 1181.371094 1962.070312 1187.09375 1934.039062 L 1192.867188 2003.335938 C 1194.601562 2012.832031 1216.808594 2026.855469 1226.324219 2024.660156 C 1235.839844 2022.464844 1247.53125 2003.453125 1249.011719 1991.507812 L 1256.300781 1932.550781 L 1262.710938 2015.300781 Z M 1262.71875 2015.3125 " fill-opacity="1" fill-rule="nonzero"/><path fill="#ffffff" d="M 808.046875 1965.546875 C 807.347656 1958.382812 790.394531 1940.898438 785.003906 1944.96875 L 760.699219 1963.292969 C 760.984375 1985.324219 762.816406 2015.820312 747.695312 2040.066406 C 741.941406 1999.886719 740.886719 1966.449219 741.453125 1937.960938 L 808.074219 1935.753906 C 833.75 1958.15625 843.921875 2004.148438 815.121094 2038.558594 L 808.054688 1965.558594 Z M 808.046875 1965.546875 " fill-opacity="1" fill-rule="nonzero"/><path fill="#ffffff" d="M 925.921875 1975.121094 C 924.585938 1966.007812 910.867188 1947.398438 902.339844 1946.144531 C 892.082031 1944.632812 872.15625 1962.527344 870.648438 1974.789062 L 862.289062 2042.773438 L 858.515625 1938.167969 L 927.753906 1936.832031 C 940.445312 1966.539062 955.96875 2009.511719 932.347656 2044.773438 Z M 925.921875 1975.121094 " fill-opacity="1" fill-rule="nonzero"/><path fill="#ffffff" d="M 1153.714844 2020.183594 C 1154.085938 2024.003906 1138.152344 2043.605469 1128.351562 2043.605469 C 1118.550781 2043.605469 1098.910156 2033.972656 1090.121094 2025.9375 C 1068.484375 2006.160156 1066.375 1963.421875 1087.621094 1943.753906 C 1104.695312 1927.945312 1153.644531 1927.875 1159.925781 1950.082031 C 1133.28125 1949.339844 1110.144531 1947.113281 1099.539062 1954.582031 C 1088.75 1962.175781 1084.261719 1991.15625 1090.394531 2002.269531 C 1100.3125 2020.210938 1122.304688 2022.957031 1153.722656 2020.183594 Z M 1153.714844 2020.183594 " fill-opacity="1" fill-rule="nonzero"/><path fill="#ff3131" d="M 1732.292969 1081.6875 L 1640.445312 1080.492188 L 1728.84375 931.363281 Z M 1732.292969 1081.6875 " fill-opacity="1" fill-rule="nonzero"/></svg>