<?xml version="1.0" encoding="UTF-8"?>
<svg xmlns="http://www.w3.org/2000/svg" viewBox="0 0 1831.483 1699.204">
  <g id="Calque_4" data-name="Calque 4">
    <g>
      <path d="M66.432,1699.204c-12.777,0-25.311-2.93-37.598-8.789-12.289-5.939-21.566-13.386-27.832-22.339-1.547-2.197-1.303-4.19.732-5.981l8.667-8.667c1.709-1.301,3.662-.812,5.859,1.465,5.533,7,12.939,12.899,22.217,17.7,9.277,4.639,18.311,6.958,27.1,6.958,13.672,0,24.372-2.93,32.104-8.789,7.648-5.939,11.475-14.118,11.475-24.536,0-6.672-2.89-12.695-8.667-18.066-2.441-2.359-5.859-4.679-10.254-6.958-5.047-2.686-9.197-4.679-12.451-5.981l-15.015-5.859c-7.568-2.766-13.55-5.127-17.944-7.08-5.047-2.359-10.052-5.045-15.015-8.057-4.965-3.174-8.993-6.47-12.085-9.888-6.756-7.893-10.132-17.212-10.132-27.954,0-14.24,5.329-25.715,15.991-34.424,10.578-8.789,24.86-13.184,42.847-13.184,10.09,0,19.815,1.913,29.175,5.737,9.439,3.826,16.602,8.789,21.484,14.893,1.789,2.279,1.911,4.354.366,6.226l-7.08,8.057c-1.791,2.197-4.232,2.117-7.324-.244-4.15-4.719-9.604-8.423-16.357-11.108-6.756-2.686-13.794-4.028-21.118-4.028-11.719,0-20.956,2.646-27.71,7.935-6.756,5.291-10.132,12.085-10.132,20.386,0,6.756,2.97,12.939,8.911,18.555,2.686,2.441,6.062,4.761,10.132,6.958,4.23,2.279,8.259,4.232,12.085,5.859,1.057.488,5.737,2.279,14.038,5.371,4.068,1.465,8.179,3.012,12.329,4.639,9.113,3.338,16.642,6.958,22.583,10.864,7.404,4.803,12.857,9.888,16.357,15.259,4.15,6.268,6.226,13.51,6.226,21.729,0,16.277-5.819,29.257-17.456,38.94-11.557,9.604-27.06,14.404-46.509,14.404Z"/>
      <path d="M210.699,1677.11h110.718c3.498,0,5.249,1.507,5.249,4.517v11.23c0,1.141-.387,2.056-1.16,2.747s-1.812,1.037-3.112,1.037h-128.174c-2.605,0-3.906-1.301-3.906-3.906v-177.734c0-2.521,1.301-3.784,3.906-3.784h125.488c2.848,0,4.272,1.221,4.272,3.662v11.841c0,2.605-1.425,3.906-4.272,3.906h-109.009v76.66h88.867c3.254,0,4.883,1.343,4.883,4.028v11.108c0,2.523-1.629,3.784-4.883,3.784h-88.867v50.903Z"/>
      <path d="M491.564,1639.756l26.001,52.49c.65,1.221.712,2.3.183,3.234-.529.937-1.445,1.404-2.746,1.404h-14.771c-1.873,0-3.296-1.057-4.272-3.174l-22.583-46.753c-6.674,1.629-13.47,2.441-20.386,2.441h-47.119v43.579c0,2.605-1.263,3.906-3.784,3.906h-12.695c-2.605,0-3.906-1.301-3.906-3.906v-178.101c0-2.521,1.301-3.784,3.906-3.784h63.599c13.508-.162,25.818,2.788,36.926,8.85,11.109,6.063,19.795,14.466,26.062,25.208,6.266,10.742,9.277,22.625,9.033,35.645,0,12.777-2.972,24.334-8.911,34.668-5.941,10.174-14.12,18.271-24.536,24.292ZM405.87,1632.066h45.898c15.461,0,28.116-4.801,37.964-14.404,9.928-9.684,14.893-22.013,14.893-36.987,0-14.893-5.047-27.14-15.137-36.743-10.174-9.766-22.747-14.648-37.72-14.648h-45.898v102.783Z"/>
      <path d="M720.548,1511.094h14.282c1.545,0,2.583.448,3.112,1.343.529.896.508,2.035-.061,3.418l-79.102,179.565c-.977,2.521-2.563,3.784-4.761,3.784h-.366c-2.197,0-3.784-1.263-4.761-3.784l-79.102-179.688c-.57-1.383-.591-2.502-.062-3.357.529-.854,1.526-1.281,2.991-1.281h14.282c1.789,0,3.254,1.059,4.395,3.174l62.5,145.996,62.5-145.874c.977-2.197,2.359-3.296,4.15-3.296Z"/>
      <path d="M811.471,1513.902v179.932c0,2.035-1.059,3.052-3.174,3.052h-14.282c-1.953,0-2.93-1.017-2.93-3.052v-179.932c0-2.033.977-3.052,2.93-3.052h14.282c2.115,0,3.174,1.019,3.174,3.052Z"/>
      <path d="M1013.233,1661.973c.977-.812,2.033-1.221,3.174-1.221s2.033.408,2.686,1.221l7.568,11.597c.488.652.568,1.507.244,2.563-.326,1.059-1.019,1.953-2.075,2.686-7.732,6.512-16.644,11.517-26.733,15.015-10.254,3.58-20.468,5.371-30.64,5.371-17.742,0-33.978-4.19-48.706-12.573-14.812-8.463-26.531-19.938-35.156-34.424-8.545-14.648-12.817-30.68-12.817-48.096s4.272-33.527,12.817-48.096c8.625-14.566,20.344-26.081,35.156-34.546,14.811-8.463,31.046-12.695,48.706-12.695,10.01,0,20.264,1.791,30.762,5.371,10.334,3.5,19.367,8.505,27.1,15.015,2.277,1.791,2.808,3.622,1.587,5.493l-7.69,11.475c-1.221,1.791-3.134,1.791-5.737,0-12.777-11.311-28.118-16.968-46.021-16.968-13.998,0-26.815,3.338-38.452,10.01-11.719,6.674-20.956,15.747-27.71,27.222-6.756,11.557-10.132,24.13-10.132,37.72,0,13.672,3.418,26.245,10.254,37.72s16.071,20.508,27.71,27.1c11.719,6.592,24.494,9.888,38.33,9.888,8.137,0,16.235-1.465,24.292-4.395s15.217-7.08,21.484-12.451Z"/>
      <path d="M1108.307,1677.11h110.718c3.498,0,5.249,1.507,5.249,4.517v11.23c0,1.141-.387,2.056-1.16,2.747s-1.812,1.037-3.112,1.037h-128.174c-2.605,0-3.906-1.301-3.906-3.906v-177.734c0-2.521,1.301-3.784,3.906-3.784h125.488c2.848,0,4.272,1.221,4.272,3.662v11.841c0,2.605-1.425,3.906-4.272,3.906h-109.009v76.66h88.867c3.254,0,4.883,1.343,4.883,4.028v11.108c0,2.523-1.629,3.784-4.883,3.784h-88.867v50.903Z"/>
      <path d="M1337.291,1699.204c-12.777,0-25.311-2.93-37.598-8.789-12.289-5.939-21.566-13.386-27.832-22.339-1.547-2.197-1.303-4.19.732-5.981l8.667-8.667c1.709-1.301,3.662-.812,5.859,1.465,5.533,7,12.939,12.899,22.217,17.7,9.277,4.639,18.311,6.958,27.1,6.958,13.672,0,24.372-2.93,32.104-8.789,7.648-5.939,11.475-14.118,11.475-24.536,0-6.672-2.89-12.695-8.667-18.066-2.441-2.359-5.859-4.679-10.254-6.958-5.047-2.686-9.197-4.679-12.451-5.981l-15.015-5.859c-7.568-2.766-13.55-5.127-17.944-7.08-5.047-2.359-10.052-5.045-15.015-8.057-4.965-3.174-8.993-6.47-12.085-9.888-6.756-7.893-10.132-17.212-10.132-27.954,0-14.24,5.329-25.715,15.991-34.424,10.578-8.789,24.86-13.184,42.847-13.184,10.09,0,19.815,1.913,29.175,5.737,9.439,3.826,16.602,8.789,21.484,14.893,1.789,2.279,1.911,4.354.366,6.226l-7.08,8.057c-1.791,2.197-4.232,2.117-7.324-.244-4.15-4.719-9.604-8.423-16.357-11.108-6.756-2.686-13.794-4.028-21.118-4.028-11.719,0-20.956,2.646-27.71,7.935-6.756,5.291-10.132,12.085-10.132,20.386,0,6.756,2.97,12.939,8.911,18.555,2.686,2.441,6.062,4.761,10.132,6.958,4.23,2.279,8.259,4.232,12.085,5.859,1.057.488,5.737,2.279,14.038,5.371,4.068,1.465,8.179,3.012,12.329,4.639,9.113,3.338,16.642,6.958,22.583,10.864,7.404,4.803,12.857,9.888,16.357,15.259,4.15,6.268,6.226,13.51,6.226,21.729,0,16.277-5.819,29.257-17.456,38.94-11.557,9.604-27.06,14.404-46.509,14.404Z"/>
    </g>
  </g>
  <g id="Calque_2" data-name="Calque 2">
    <polygon points="1329.122 989.491 1329.085 1392.439 65.904 1392.488 65.904 62.657 1770.979 62.657 1770.979 399.595 1831.483 399.595 1831.483 0 1.466 0 1.466 1458.356 1397.907 1458.356 1397.907 989.283 1329.122 989.491"/>
    <polygon points="135.77 131.329 135.77 1330.55 409.98 1330.55 409.98 823.28 767.731 1330.718 1122.887 1330.718 665.045 699.025 1084.474 131.285 744.983 131.163 411.589 622.267 409.959 131.25 135.77 131.329"/>
    <path d="M990.598,307.436l129.632-176.161,580.53-.005-.027,268.474-436.122-.007.215,242.665,421.057,3.165-.048,268.818h-422.31v416.333h-105.231l-167.556-235.71s-.141-798.746-.141-787.573Z"/>
  </g>
</svg>