<svg xmlns="http://www.w3.org/2000/svg" xmlns:xlink="http://www.w3.org/1999/xlink" width="3780" zoomAndPan="magnify" viewBox="0 0 2835 2834.999876" height="3780" preserveAspectRatio="xMidYMid meet" version="1.0"><defs><clipPath id="68ae8598bf"><path d="M 0.121094 0.480469 L 1509 0.480469 L 1509 1706.878906 L 0.121094 1706.878906 Z M 0.121094 0.480469 " clip-rule="nonzero"/></clipPath><clipPath id="7e69082e79"><path d="M 0.191406 659.902344 L 1509 659.902344 L 1509 1706.6875 L 0.191406 1706.6875 Z M 0.191406 659.902344 " clip-rule="nonzero"/></clipPath><clipPath id="d7075955bc"><rect x="0" width="1509" y="0" height="1707"/></clipPath><clipPath id="2b60ac904e"><rect x="0" width="1509" y="0" height="1707"/></clipPath></defs><g transform="matrix(1, 0, 0, 1, 663, 564)"><g clip-path="url(#2b60ac904e)"><g clip-path="url(#68ae8598bf)"><g><g clip-path="url(#d7075955bc)"><g clip-path="url(#7e69082e79)"><path fill="#000000" d="M 599.488281 1706.621094 C 561.667969 1706.621094 526.914062 1678.40625 514.996094 1637.96875 C 514.539062 1636.203125 514.320312 1634.410156 514.34375 1632.585938 C 514.34375 1628.210938 514.34375 1627.203125 509.964844 1627.203125 L 507.453125 1627.203125 C 501.804688 1627.855469 496.136719 1628.191406 490.453125 1628.210938 C 437.84375 1628.210938 401.835938 1598.738281 391.675781 1547.386719 C 389.3125 1535.515625 385.539062 1534.910156 379.605469 1534.910156 L 368.539062 1535.214844 C 314.222656 1535.214844 277.207031 1502.773438 269.613281 1448.402344 C 268.355469 1439.550781 266.242188 1439.550781 257.390625 1439.550781 C 222.589844 1439.25 192.816406 1424.460938 175.664062 1399.3125 C 158.515625 1374.167969 156.101562 1340.921875 168.625 1308.78125 C 173.953125 1295.152344 170.382812 1291.378906 159.621094 1284.839844 C 120.792969 1261.253906 81.765625 1236.605469 43.945312 1212.765625 L 21.515625 1198.632812 L 17.742188 1196.371094 C 11.304688 1192.546875 3.960938 1188.070312 1.246094 1179.523438 C 0.910156 1178.617188 0.644531 1177.691406 0.457031 1176.742188 C 0.265625 1175.796875 0.152344 1174.839844 0.113281 1173.875 C 0.0742188 1172.910156 0.113281 1171.949219 0.230469 1170.992188 C 0.34375 1170.03125 0.535156 1169.089844 0.800781 1168.160156 C 1.066406 1167.230469 1.402344 1166.328125 1.8125 1165.453125 C 2.21875 1164.582031 2.695312 1163.742188 3.238281 1162.945312 C 3.777344 1162.144531 4.382812 1161.394531 5.042969 1160.691406 C 5.703125 1159.984375 6.417969 1159.339844 7.179688 1158.75 C 8.839844 1157.339844 10.6875 1156.25 12.726562 1155.480469 C 14.765625 1154.710938 16.871094 1154.308594 19.050781 1154.273438 C 21.117188 1154.324219 23.136719 1154.65625 25.113281 1155.269531 C 27.085938 1155.886719 28.9375 1156.761719 30.667969 1157.894531 C 35.699219 1160.960938 40.726562 1163.777344 45.757812 1166.644531 C 56.226562 1172.238281 66.183594 1178.625 75.628906 1185.808594 C 77.007812 1187.148438 78.554688 1188.246094 80.269531 1189.101562 C 81.988281 1189.960938 83.792969 1190.539062 85.691406 1190.839844 C 89.511719 1190.839844 92.226562 1186.714844 96.351562 1179.972656 L 97.457031 1178.265625 C 149.964844 1093.667969 202.875 1009.203125 256.183594 924.875 C 280.527344 886.296875 302.605469 851.089844 326.144531 816.183594 C 329.210938 811.609375 330.417969 808.589844 329.914062 806.578125 C 329.414062 804.566406 326.949219 802.351562 321.667969 799.386719 C 285.65625 779.265625 249.496094 758.09375 214.542969 737.570312 L 195.328125 726.355469 C 188.621094 722.886719 182.601562 718.480469 177.273438 713.128906 C 176.492188 712.230469 175.796875 711.273438 175.183594 710.253906 C 174.570312 709.234375 174.054688 708.167969 173.632812 707.054688 C 173.207031 705.945312 172.886719 704.804688 172.667969 703.636719 C 172.445312 702.464844 172.328125 701.289062 172.320312 700.097656 C 172.308594 698.910156 172.402344 697.726562 172.597656 696.554688 C 172.796875 695.382812 173.097656 694.234375 173.496094 693.117188 C 173.898438 691.996094 174.394531 690.921875 174.988281 689.890625 C 175.578125 688.855469 176.257812 687.886719 177.023438 686.972656 C 177.742188 685.871094 178.582031 684.871094 179.539062 683.972656 C 180.5 683.074219 181.554688 682.300781 182.703125 681.65625 C 183.851562 681.015625 185.058594 680.515625 186.324219 680.164062 C 187.59375 679.8125 188.882812 679.621094 190.199219 679.582031 C 193.160156 679.878906 196.03125 680.546875 198.820312 681.585938 C 201.605469 682.625 204.214844 684.003906 206.644531 685.71875 L 264.28125 719.0625 C 298.246094 738.679688 332.210938 758.277344 366.175781 777.859375 C 373.46875 782.035156 380.964844 785.804688 388.507812 789.527344 C 393.082031 791.789062 397.609375 794.054688 402.136719 796.417969 C 406.660156 798.886719 411.414062 800.769531 416.398438 802.0625 C 421.386719 803.355469 426.457031 804.023438 431.609375 804.0625 C 437.535156 803.9375 443.367188 803.113281 449.097656 801.59375 C 454.828125 800.070312 460.296875 797.894531 465.507812 795.058594 C 473.402344 791.085938 481.199219 786.914062 489.042969 782.738281 C 511.28125 770.054688 534.414062 759.308594 558.449219 750.5 C 568.144531 747.042969 578.054688 744.386719 588.179688 742.539062 C 598.304688 740.691406 608.511719 739.671875 618.800781 739.484375 C 627.621094 739.410156 636.355469 740.21875 645.011719 741.914062 C 653.664062 743.605469 662.0625 746.148438 670.203125 749.542969 C 672.140625 750.40625 674.167969 750.859375 676.289062 750.902344 C 678.429688 750.675781 680.5 750.160156 682.5 749.355469 C 684.5 748.554688 686.351562 747.492188 688.054688 746.171875 C 734.996094 717.4375 781.367188 703.101562 827.167969 703.167969 C 869.617188 703.167969 912.667969 715.542969 954.710938 739.886719 C 975.988281 752.109375 997.460938 764.027344 1018.886719 775.996094 C 1035.03125 784.949219 1051.226562 793.953125 1067.269531 803.058594 C 1070.839844 805.28125 1074.640625 807.007812 1078.664062 808.234375 C 1082.6875 809.460938 1086.804688 810.152344 1091.007812 810.300781 C 1093.703125 810.167969 1096.363281 809.796875 1098.992188 809.195312 C 1101.621094 808.59375 1104.175781 807.769531 1106.660156 806.71875 C 1109.144531 805.667969 1111.515625 804.40625 1113.777344 802.941406 C 1116.039062 801.472656 1118.15625 799.816406 1120.128906 797.976562 C 1156.1875 768.253906 1193.65625 738.980469 1229.917969 710.714844 C 1245.945312 698.171875 1261.972656 685.601562 1278 672.992188 L 1281.671875 670.023438 C 1287.757812 664.996094 1294.042969 659.964844 1301.386719 659.964844 C 1302.917969 660.058594 1304.417969 660.324219 1305.890625 660.761719 C 1307.359375 661.199219 1308.761719 661.800781 1310.09375 662.558594 C 1311.429688 663.316406 1312.660156 664.214844 1313.789062 665.253906 C 1314.917969 666.296875 1315.914062 667.449219 1316.777344 668.71875 C 1317.8125 669.765625 1318.734375 670.90625 1319.53125 672.144531 C 1320.332031 673.386719 1320.996094 674.691406 1321.523438 676.070312 C 1322.054688 677.445312 1322.433594 678.863281 1322.667969 680.316406 C 1322.902344 681.773438 1322.984375 683.238281 1322.910156 684.710938 C 1321.957031 693.816406 1313.609375 700.253906 1306.316406 705.9375 C 1267.640625 736.113281 1220.363281 772.730469 1174.195312 806.878906 C 1161.972656 815.882812 1159.558594 820.914062 1168.660156 834.191406 C 1247.925781 950.726562 1324.570312 1065.550781 1395.285156 1172.179688 C 1399.359375 1178.3125 1402.273438 1180.828125 1405.34375 1180.828125 C 1407.117188 1180.585938 1408.816406 1180.089844 1410.445312 1179.347656 C 1412.070312 1178.601562 1413.554688 1177.636719 1414.898438 1176.453125 C 1429.988281 1165.488281 1446.082031 1155.429688 1461.621094 1145.671875 L 1471.128906 1139.6875 C 1473.738281 1137.839844 1476.550781 1136.386719 1479.566406 1135.324219 C 1482.585938 1134.265625 1485.6875 1133.640625 1488.878906 1133.449219 C 1490.503906 1133.484375 1492.097656 1133.71875 1493.664062 1134.160156 C 1495.226562 1134.601562 1496.710938 1135.230469 1498.117188 1136.046875 C 1499.519531 1136.867188 1500.796875 1137.847656 1501.949219 1138.992188 C 1503.105469 1140.136719 1504.09375 1141.40625 1504.925781 1142.804688 C 1505.710938 1143.808594 1506.390625 1144.878906 1506.957031 1146.019531 C 1507.523438 1147.164062 1507.96875 1148.347656 1508.292969 1149.582031 C 1508.621094 1150.816406 1508.816406 1152.066406 1508.882812 1153.339844 C 1508.949219 1154.613281 1508.886719 1155.878906 1508.695312 1157.140625 C 1507.1875 1164.683594 1499.996094 1169.863281 1493.609375 1174.089844 C 1423.75 1219.054688 1360.882812 1259.59375 1298.621094 1304.15625 C 1288.5625 1311.195312 1285.039062 1315.421875 1287.855469 1329.300781 C 1288.691406 1332.796875 1289.324219 1336.332031 1289.761719 1339.898438 C 1290.195312 1343.464844 1290.429688 1347.046875 1290.460938 1350.640625 C 1290.492188 1354.234375 1290.320312 1357.816406 1289.949219 1361.394531 C 1289.574219 1364.96875 1289.003906 1368.507812 1288.230469 1372.019531 C 1287.457031 1375.53125 1286.488281 1378.984375 1285.328125 1382.386719 C 1284.164062 1385.785156 1282.8125 1389.109375 1281.277344 1392.359375 C 1279.738281 1395.609375 1278.023438 1398.757812 1276.128906 1401.816406 C 1274.238281 1404.871094 1272.175781 1407.808594 1269.953125 1410.628906 C 1251.746094 1432.910156 1224.234375 1445.183594 1192.398438 1445.183594 L 1188.425781 1445.183594 L 1181.082031 1444.882812 C 1177.160156 1444.882812 1174.042969 1444.882812 1173.390625 1454.941406 C 1169.816406 1510.820312 1131.542969 1548.339844 1078.132812 1548.339844 C 1065.234375 1548.265625 1052.644531 1546.253906 1040.363281 1542.304688 C 1030.304688 1599.742188 995.851562 1632.835938 945.15625 1632.835938 C 935.199219 1632.625 925.347656 1631.484375 915.605469 1629.414062 C 905.863281 1627.339844 896.402344 1624.375 887.21875 1620.515625 C 876.355469 1672.269531 839.390625 1705.515625 792.214844 1705.515625 C 786.902344 1705.414062 781.621094 1704.945312 776.375 1704.109375 C 771.128906 1703.273438 765.964844 1702.082031 760.882812 1700.527344 C 755.800781 1698.976562 750.851562 1697.082031 746.035156 1694.839844 C 741.214844 1692.601562 736.574219 1690.039062 732.113281 1687.15625 C 716.773438 1677.652344 702.992188 1669.804688 689.011719 1669.804688 C 677.140625 1669.804688 664.871094 1675.539062 650.4375 1687.8125 C 646.921875 1690.835938 643.171875 1693.523438 639.175781 1695.878906 C 635.179688 1698.230469 631.007812 1700.210938 626.660156 1701.816406 C 622.3125 1703.421875 617.855469 1704.628906 613.289062 1705.433594 C 608.726562 1706.242188 604.125 1706.636719 599.488281 1706.621094 Z M 628.308594 1494.222656 C 659.1875 1497.945312 683.628906 1510.769531 698.71875 1531.492188 C 713.804688 1552.214844 718.835938 1580.277344 711.792969 1611.363281 C 711.332031 1613.074219 710.761719 1614.75 710.085938 1616.390625 C 708.074219 1621.421875 707.417969 1623.785156 711.84375 1626.703125 C 716.269531 1629.617188 721.902344 1633.441406 726.582031 1636.761719 C 744.6875 1649.585938 761.785156 1661.65625 783.867188 1664.875 C 785.816406 1665.359375 787.796875 1665.695312 789.800781 1665.882812 C 812.078125 1665.882812 837.226562 1649.789062 844.671875 1630.675781 C 852.765625 1610.003906 845.574219 1591.292969 823.394531 1575.351562 C 804.386719 1561.46875 785.339844 1547.621094 766.261719 1533.804688 L 699.269531 1484.816406 C 697.660156 1483.84375 696.164062 1482.71875 694.78125 1481.445312 C 693.398438 1480.171875 692.152344 1478.769531 691.050781 1477.246094 C 689.949219 1475.71875 689.011719 1474.101562 688.238281 1472.386719 C 687.460938 1470.671875 686.863281 1468.898438 686.445312 1467.0625 C 686.28125 1465.714844 686.261719 1464.363281 686.378906 1463.007812 C 686.5 1461.652344 686.757812 1460.328125 687.15625 1459.027344 C 687.554688 1457.726562 688.085938 1456.484375 688.746094 1455.296875 C 689.40625 1454.105469 690.179688 1453 691.074219 1451.972656 C 691.875 1450.773438 692.804688 1449.683594 693.871094 1448.707031 C 694.933594 1447.730469 696.097656 1446.890625 697.363281 1446.195312 C 698.628906 1445.5 699.957031 1444.964844 701.351562 1444.589844 C 702.746094 1444.214844 704.164062 1444.011719 705.609375 1443.976562 C 708.800781 1444.195312 711.863281 1444.9375 714.804688 1446.195312 C 717.746094 1447.453125 720.398438 1449.164062 722.757812 1451.320312 C 725.777344 1453.734375 729.046875 1455.949219 732.214844 1458.160156 L 738.199219 1462.335938 L 772.597656 1487.484375 C 813.4375 1517.15625 854.242188 1546.882812 895.015625 1576.65625 C 900.171875 1580.761719 905.6875 1584.304688 911.566406 1587.285156 C 917.441406 1590.265625 923.558594 1592.625 929.917969 1594.363281 C 933.324219 1595.15625 936.777344 1595.542969 940.277344 1595.519531 C 943.152344 1595.390625 946 1595.066406 948.832031 1594.550781 C 951.660156 1594.03125 954.4375 1593.320312 957.171875 1592.421875 C 959.902344 1591.519531 962.558594 1590.4375 965.140625 1589.175781 C 967.726562 1587.910156 970.210938 1586.476562 972.597656 1584.871094 C 974.984375 1583.265625 977.25 1581.507812 979.394531 1579.589844 C 981.539062 1577.675781 983.542969 1575.621094 985.40625 1573.429688 C 987.269531 1571.242188 988.976562 1568.933594 990.523438 1566.507812 C 992.070312 1564.085938 993.445312 1561.566406 994.644531 1558.953125 C 1005.507812 1535.566406 1000.628906 1520.578125 976.035156 1501.515625 C 918.5 1457.085938 861.066406 1412.542969 803.730469 1367.878906 C 795.886719 1361.792969 788.191406 1355.054688 787.335938 1346.203125 C 787.277344 1344.683594 787.378906 1343.175781 787.632812 1341.675781 C 787.886719 1340.179688 788.289062 1338.722656 788.84375 1337.308594 C 789.394531 1335.894531 790.089844 1334.550781 790.917969 1333.277344 C 791.75 1332.003906 792.699219 1330.832031 793.773438 1329.753906 C 794.609375 1328.609375 795.566406 1327.566406 796.632812 1326.632812 C 797.703125 1325.695312 798.863281 1324.890625 800.109375 1324.210938 C 801.355469 1323.53125 802.664062 1323 804.03125 1322.609375 C 805.398438 1322.222656 806.789062 1321.988281 808.207031 1321.910156 C 815.296875 1321.910156 821.183594 1326.9375 826.867188 1331.96875 C 828.125 1333.023438 829.332031 1334.082031 830.589844 1335.035156 L 872.433594 1368.382812 C 902.609375 1392.625 933.1875 1416.867188 963.816406 1440.808594 L 977.34375 1451.472656 C 999.375 1468.875 1022.207031 1486.679688 1046.097656 1502.117188 C 1050.429688 1504.855469 1055.058594 1506.929688 1059.988281 1508.339844 C 1064.914062 1509.753906 1069.941406 1510.445312 1075.066406 1510.417969 C 1077.679688 1510.382812 1080.285156 1510.183594 1082.875 1509.828125 C 1085.46875 1509.472656 1088.027344 1508.960938 1090.554688 1508.289062 C 1093.085938 1507.617188 1095.5625 1506.792969 1097.988281 1505.820312 C 1100.417969 1504.84375 1102.777344 1503.722656 1105.066406 1502.457031 C 1107.355469 1501.191406 1109.558594 1499.792969 1111.675781 1498.257812 C 1113.792969 1496.722656 1115.8125 1495.0625 1117.722656 1493.277344 C 1119.636719 1491.496094 1121.4375 1489.601562 1123.117188 1487.597656 C 1124.796875 1485.589844 1126.351562 1483.492188 1127.773438 1481.296875 C 1142.207031 1458.5625 1134.613281 1431.453125 1107.65625 1410.628906 C 1074.863281 1385.082031 983.28125 1313.308594 983.28125 1313.308594 C 953.101562 1289.617188 922.925781 1265.980469 892.75 1242.089844 C 886.414062 1237.058594 879.574219 1231.679688 878.820312 1224.035156 C 878.769531 1222.75 878.847656 1221.472656 879.054688 1220.203125 C 879.265625 1218.933594 879.597656 1217.699219 880.054688 1216.496094 C 880.515625 1215.296875 881.085938 1214.152344 881.777344 1213.066406 C 882.464844 1211.980469 883.257812 1210.976562 884.152344 1210.050781 C 885.113281 1208.785156 886.203125 1207.644531 887.421875 1206.625 C 888.640625 1205.605469 889.957031 1204.734375 891.371094 1204.011719 C 892.785156 1203.289062 894.265625 1202.734375 895.804688 1202.34375 C 897.34375 1201.953125 898.90625 1201.738281 900.496094 1201.703125 C 903.703125 1201.894531 906.816406 1202.539062 909.839844 1203.636719 C 912.859375 1204.730469 915.664062 1206.234375 918.25 1208.140625 C 920.765625 1209.851562 923.179688 1211.695312 925.492188 1213.671875 L 993.085938 1267.238281 C 1045.59375 1308.933594 1099.859375 1351.984375 1153.722656 1393.628906 C 1156.496094 1395.953125 1159.445312 1398.027344 1162.566406 1399.855469 C 1165.6875 1401.683594 1168.9375 1403.238281 1172.320312 1404.523438 C 1175.699219 1405.808594 1179.164062 1406.800781 1182.710938 1407.507812 C 1186.257812 1408.210938 1189.839844 1408.613281 1193.457031 1408.71875 C 1210.65625 1408.71875 1226.75 1399.917969 1239.925781 1383.570312 C 1260.046875 1358.070312 1254.460938 1329.402344 1224.386719 1304.910156 C 1059.875 1170.871094 925.242188 1064.996094 800.914062 971.800781 C 788.441406 962.445312 780.796875 958.773438 774.207031 958.773438 C 766.0625 958.773438 757.613281 964.457031 745.84375 974.164062 C 731.558594 985.984375 717.628906 998.859375 704.148438 1011.28125 C 678.300781 1035.171875 651.542969 1059.867188 620.5625 1078.777344 C 616.058594 1081.609375 611.382812 1084.117188 606.535156 1086.304688 C 601.6875 1088.496094 596.710938 1090.34375 591.613281 1091.851562 C 586.511719 1093.363281 581.332031 1094.515625 576.074219 1095.316406 C 570.816406 1096.117188 565.527344 1096.554688 560.210938 1096.632812 C 556.71875 1096.625 553.234375 1096.433594 549.765625 1096.0625 C 546.292969 1095.691406 542.847656 1095.144531 539.433594 1094.417969 C 536.019531 1093.6875 532.648438 1092.789062 529.328125 1091.710938 C 526.007812 1090.632812 522.75 1089.390625 519.558594 1087.976562 C 516.363281 1086.5625 513.253906 1084.984375 510.222656 1083.25 C 507.195312 1081.511719 504.261719 1079.625 501.429688 1077.585938 C 498.597656 1075.546875 495.875 1073.363281 493.269531 1071.042969 C 490.660156 1068.71875 488.179688 1066.269531 485.824219 1063.691406 C 451.726562 1027.023438 452.882812 987.441406 489.496094 939.105469 C 531.289062 883.78125 580.328125 837.109375 627.050781 794.808594 C 628.621094 793.394531 630.296875 792.121094 632.078125 790.984375 C 636.253906 788.269531 639.121094 786.257812 639.773438 782.585938 C 632.71875 781.164062 625.59375 780.441406 618.398438 780.425781 C 609.933594 780.585938 601.558594 781.53125 593.269531 783.265625 C 584.984375 785 576.929688 787.488281 569.113281 790.734375 C 542.371094 800.816406 516.753906 813.222656 492.261719 827.953125 C 487.953125 830.738281 483.472656 833.207031 478.820312 835.363281 C 474.167969 837.519531 469.386719 839.34375 464.480469 840.832031 C 459.570312 842.320312 454.585938 843.460938 449.515625 844.25 C 444.449219 845.042969 439.351562 845.476562 434.222656 845.558594 C 425.152344 845.386719 416.238281 844.125 407.476562 841.777344 C 398.714844 839.429688 390.363281 836.0625 382.421875 831.675781 C 378.957031 829.5625 375.199219 828.339844 371.15625 828.003906 C 366.125 828.003906 362.90625 831.828125 357.828125 839.875 C 312.195312 912.46875 266.394531 984.945312 220.425781 1057.300781 L 155.796875 1159.402344 C 152.378906 1164.785156 148.105469 1170.367188 143.777344 1175.949219 C 133.972656 1188.523438 123.914062 1201.601562 125.371094 1211.863281 C 126.828125 1222.121094 139.605469 1228.8125 153.082031 1235.5 C 161 1239.050781 168.441406 1243.410156 175.414062 1248.578125 C 177.707031 1250.839844 180.3125 1252.65625 183.230469 1254.03125 C 186.144531 1255.402344 189.207031 1256.25 192.414062 1256.574219 C 198.195312 1256.574219 204.230469 1253.003906 211.976562 1244.957031 C 214.097656 1242.683594 216.324219 1240.519531 218.664062 1238.472656 C 221 1236.425781 223.4375 1234.5 225.96875 1232.695312 C 228.503906 1230.894531 231.121094 1229.226562 233.824219 1227.6875 C 236.523438 1226.152344 239.296875 1224.753906 242.140625 1223.496094 C 244.984375 1222.238281 247.882812 1221.128906 250.839844 1220.167969 C 253.792969 1219.203125 256.789062 1218.390625 259.828125 1217.730469 C 262.867188 1217.070312 265.929688 1216.566406 269.019531 1216.214844 C 272.105469 1215.863281 275.207031 1215.671875 278.3125 1215.632812 C 280.480469 1215.648438 282.644531 1215.746094 284.804688 1215.921875 C 286.96875 1216.097656 289.117188 1216.351562 291.261719 1216.6875 C 293.402344 1217.023438 295.527344 1217.4375 297.640625 1217.929688 C 299.75 1218.421875 301.839844 1218.992188 303.910156 1219.640625 C 305.976562 1220.289062 308.019531 1221.011719 310.035156 1221.808594 C 312.050781 1222.609375 314.03125 1223.480469 315.984375 1224.425781 C 317.933594 1225.375 319.847656 1226.390625 321.722656 1227.476562 C 323.597656 1228.566406 325.429688 1229.722656 327.21875 1230.945312 C 329.007812 1232.167969 330.75 1233.457031 332.445312 1234.808594 C 334.136719 1236.160156 335.78125 1237.574219 337.371094 1239.050781 C 338.960938 1240.523438 340.492188 1242.054688 341.96875 1243.640625 C 343.445312 1245.230469 344.859375 1246.871094 346.214844 1248.5625 C 347.566406 1250.253906 348.859375 1251.996094 350.082031 1253.785156 C 351.308594 1255.574219 352.464844 1257.402344 353.554688 1259.277344 C 354.644531 1261.152344 355.664062 1263.0625 356.613281 1265.011719 C 357.558594 1266.964844 358.433594 1268.945312 359.238281 1270.960938 C 361.703125 1277.109375 363.816406 1283.378906 365.574219 1289.769531 L 367.082031 1294.800781 C 375.761719 1290.78125 384.761719 1287.683594 394.082031 1285.515625 C 403.398438 1283.347656 412.839844 1282.148438 422.40625 1281.921875 C 470.335938 1281.921875 502.523438 1314.714844 510.671875 1371.851562 C 511.625 1378.339844 512.730469 1378.339844 513.6875 1378.339844 C 515.960938 1378.132812 518.191406 1377.695312 520.378906 1377.03125 C 526.976562 1375.347656 533.683594 1374.507812 540.496094 1374.519531 C 548.726562 1374.527344 556.792969 1375.699219 564.6875 1378.039062 C 567.5625 1378.855469 570.390625 1379.804688 573.179688 1380.882812 C 575.964844 1381.964844 578.695312 1383.175781 581.367188 1384.511719 C 584.039062 1385.847656 586.644531 1387.308594 589.179688 1388.890625 C 591.71875 1390.472656 594.171875 1392.167969 596.550781 1393.980469 C 598.925781 1395.792969 601.214844 1397.714844 603.410156 1399.738281 C 605.609375 1401.765625 607.703125 1403.890625 609.703125 1406.117188 C 611.699219 1408.339844 613.589844 1410.652344 615.367188 1413.050781 C 617.148438 1415.453125 618.8125 1417.933594 620.359375 1420.488281 C 633.890625 1441.765625 636.453125 1465.90625 628.308594 1494.222656 Z M 626.746094 1534.460938 C 623.832031 1534.441406 620.945312 1534.734375 618.089844 1535.339844 C 615.238281 1535.941406 612.480469 1536.84375 609.820312 1538.042969 C 607.160156 1539.238281 604.660156 1540.707031 602.316406 1542.441406 C 599.972656 1544.179688 597.839844 1546.144531 595.917969 1548.339844 C 581.363281 1563.957031 568.960938 1581.125 558.699219 1599.84375 C 557.789062 1601.457031 556.988281 1603.125 556.296875 1604.847656 C 555.605469 1606.566406 555.027344 1608.328125 554.570312 1610.125 C 554.109375 1611.921875 553.773438 1613.738281 553.554688 1615.582031 C 553.335938 1617.421875 553.242188 1619.269531 553.265625 1621.125 C 553.292969 1622.980469 553.441406 1624.824219 553.710938 1626.660156 C 553.984375 1628.492188 554.371094 1630.300781 554.882812 1632.085938 C 555.390625 1633.867188 556.015625 1635.609375 556.757812 1637.3125 C 557.496094 1639.011719 558.347656 1640.65625 559.304688 1642.242188 C 560.308594 1643.925781 561.417969 1645.539062 562.628906 1647.078125 C 563.84375 1648.617188 565.148438 1650.070312 566.550781 1651.4375 C 567.953125 1652.808594 569.4375 1654.082031 571.003906 1655.257812 C 572.570312 1656.433594 574.207031 1657.503906 575.914062 1658.46875 C 577.621094 1659.433594 579.382812 1660.28125 581.199219 1661.015625 C 583.015625 1661.753906 584.871094 1662.367188 586.765625 1662.859375 C 588.664062 1663.355469 590.582031 1663.722656 592.527344 1663.96875 C 594.472656 1664.214844 596.421875 1664.332031 598.382812 1664.324219 C 615.632812 1664.324219 636.355469 1653.257812 652.699219 1635.402344 C 669.042969 1617.546875 677.34375 1597.679688 675.886719 1581.234375 C 673.921875 1559.003906 663.914062 1544.871094 645.304688 1537.980469 C 639.320312 1535.757812 633.132812 1534.617188 626.746094 1534.558594 Z M 536.21875 1414.300781 C 533.574219 1414.265625 530.949219 1414.472656 528.34375 1414.921875 C 525.738281 1415.367188 523.195312 1416.050781 520.714844 1416.964844 C 518.234375 1417.882812 515.859375 1419.015625 513.585938 1420.367188 C 511.316406 1421.722656 509.1875 1423.269531 507.199219 1425.015625 C 492.847656 1438.015625 479.664062 1452.113281 467.652344 1467.308594 C 455.644531 1482.5 444.96875 1498.582031 435.632812 1515.546875 C 423.511719 1537.175781 431.761719 1563.628906 455.75 1579.976562 C 460.390625 1583.488281 465.445312 1586.234375 470.917969 1588.222656 C 476.386719 1590.214844 482.023438 1591.355469 487.835938 1591.644531 C 500.109375 1591.644531 511.574219 1585.609375 521.785156 1573.742188 C 541.902344 1550.554688 560.359375 1525.605469 578.464844 1501.414062 L 584.703125 1493.066406 C 593.402344 1481.449219 601.148438 1463.339844 588.675781 1442.769531 C 576.804688 1423.558594 561.46875 1414.203125 541.703125 1414.203125 L 539.941406 1414.203125 Z M 417.628906 1319.847656 C 413.621094 1319.972656 409.675781 1320.515625 405.785156 1321.476562 C 401.894531 1322.4375 398.148438 1323.796875 394.546875 1325.554688 C 390.945312 1327.308594 387.566406 1329.421875 384.414062 1331.894531 C 381.257812 1334.363281 378.398438 1337.140625 375.832031 1340.214844 C 362.203125 1355.304688 349.679688 1372.054688 337.507812 1388.199219 C 333.183594 1393.984375 328.808594 1399.816406 324.382812 1405.550781 C 303.058594 1433.214844 303.660156 1462.636719 325.941406 1482.300781 C 328.527344 1484.699219 331.308594 1486.84375 334.285156 1488.730469 C 337.261719 1490.617188 340.386719 1492.21875 343.65625 1493.535156 C 346.925781 1494.851562 350.289062 1495.859375 353.746094 1496.554688 C 357.199219 1497.253906 360.691406 1497.632812 364.214844 1497.691406 C 366.332031 1497.632812 368.4375 1497.457031 370.53125 1497.171875 C 372.628906 1496.886719 374.703125 1496.488281 376.757812 1495.984375 C 378.8125 1495.476562 380.835938 1494.859375 382.824219 1494.136719 C 384.8125 1493.417969 386.757812 1492.589844 388.65625 1491.660156 C 390.558594 1490.730469 392.40625 1489.703125 394.195312 1488.574219 C 395.988281 1487.449219 397.714844 1486.230469 399.375 1484.917969 C 401.035156 1483.609375 402.621094 1482.214844 404.136719 1480.734375 C 405.648438 1479.253906 407.078125 1477.699219 408.421875 1476.066406 C 424.265625 1458.210938 438.601562 1438.542969 452.882812 1419.53125 L 463.847656 1404.796875 C 465.328125 1402.851562 466.613281 1400.785156 467.699219 1398.59375 C 468.785156 1396.40625 469.652344 1394.132812 470.304688 1391.773438 C 470.953125 1389.417969 471.375 1387.019531 471.566406 1384.585938 C 471.757812 1382.148438 471.714844 1379.714844 471.441406 1377.285156 C 473.402344 1354.550781 462.789062 1337.703125 439.003906 1325.128906 C 435.710938 1323.382812 432.257812 1322.0625 428.640625 1321.167969 C 425.023438 1320.273438 421.351562 1319.832031 417.628906 1319.847656 Z M 276.300781 1254.914062 C 271.757812 1254.933594 267.335938 1255.675781 263.03125 1257.140625 C 258.730469 1258.601562 254.769531 1260.710938 251.15625 1263.464844 C 223.945312 1283.582031 206.996094 1308.179688 200.863281 1336.746094 C 200.6875 1337.6875 200.542969 1338.628906 200.417969 1339.578125 C 200.296875 1340.527344 200.199219 1341.476562 200.128906 1342.429688 C 200.058594 1343.382812 200.011719 1344.335938 199.992188 1345.292969 C 199.96875 1346.25 199.972656 1347.203125 200.003906 1348.160156 C 200.035156 1349.113281 200.089844 1350.070312 200.167969 1351.019531 C 200.25 1351.972656 200.355469 1352.921875 200.488281 1353.871094 C 200.617188 1354.816406 200.773438 1355.757812 200.957031 1356.699219 C 201.136719 1357.636719 201.34375 1358.570312 201.574219 1359.496094 C 201.804688 1360.421875 202.058594 1361.34375 202.339844 1362.257812 C 202.621094 1363.171875 202.921875 1364.078125 203.25 1364.976562 C 203.578125 1365.875 203.929688 1366.761719 204.304688 1367.640625 C 204.683594 1368.519531 205.078125 1369.386719 205.5 1370.246094 C 205.921875 1371.105469 206.367188 1371.949219 206.832031 1372.785156 C 207.300781 1373.617188 207.789062 1374.441406 208.296875 1375.25 C 208.808594 1376.058594 209.339844 1376.851562 209.890625 1377.632812 C 210.445312 1378.410156 211.015625 1379.175781 211.609375 1379.925781 C 212.203125 1380.675781 212.816406 1381.40625 213.445312 1382.125 C 214.078125 1382.84375 214.730469 1383.542969 215.398438 1384.222656 C 216.066406 1384.90625 216.753906 1385.570312 217.460938 1386.214844 C 218.164062 1386.863281 218.886719 1387.488281 219.621094 1388.097656 C 220.359375 1388.703125 221.113281 1389.292969 221.882812 1389.859375 C 222.652344 1390.425781 223.4375 1390.972656 224.234375 1391.5 C 225.03125 1392.023438 225.84375 1392.527344 226.667969 1393.011719 C 227.492188 1393.496094 228.332031 1393.953125 229.179688 1394.394531 C 230.03125 1394.832031 230.890625 1395.246094 231.761719 1395.636719 C 232.632812 1396.03125 233.515625 1396.398438 234.40625 1396.746094 C 235.296875 1397.089844 236.195312 1397.410156 237.105469 1397.710938 C 238.011719 1398.007812 238.929688 1398.28125 239.851562 1398.53125 C 240.773438 1398.777344 241.703125 1399.003906 242.636719 1399.203125 C 243.574219 1399.402344 244.511719 1399.574219 245.457031 1399.726562 C 246.398438 1399.875 247.347656 1400 248.296875 1400.097656 C 249.25 1400.199219 250.199219 1400.273438 251.15625 1400.320312 C 255.726562 1400.324219 260.1875 1399.617188 264.535156 1398.207031 C 287.46875 1390.714844 327.097656 1334.382812 327.097656 1309.535156 C 327.097656 1287.507812 318.046875 1271.261719 299.738281 1261.253906 C 296.164062 1259.222656 292.390625 1257.667969 288.421875 1256.597656 C 284.453125 1255.523438 280.414062 1254.960938 276.300781 1254.914062 Z M 773.707031 917.933594 C 789.902344 917.933594 807.203125 925.527344 829.832031 942.679688 C 952.046875 1035.171875 1081.300781 1137.171875 1249.433594 1273.375 C 1251.035156 1275.042969 1252.867188 1276.402344 1254.925781 1277.457031 C 1256.984375 1278.507812 1259.160156 1279.191406 1261.453125 1279.507812 C 1263.324219 1279.351562 1265.121094 1278.898438 1266.84375 1278.148438 C 1268.566406 1277.402344 1270.121094 1276.394531 1271.511719 1275.132812 C 1288.964844 1262.007812 1307.171875 1249.230469 1324.722656 1236.910156 L 1341.722656 1224.988281 C 1370.589844 1204.871094 1370.589844 1204.871094 1350.925781 1175.246094 C 1279.441406 1068.71875 1207.890625 962.175781 1136.273438 855.617188 C 1135.378906 854.234375 1134.554688 852.808594 1133.808594 851.339844 C 1131.292969 846.613281 1129.53125 843.746094 1126.515625 843.746094 C 1124.566406 843.914062 1122.769531 844.535156 1121.132812 845.609375 C 1116.757812 848.285156 1112.101562 850.324219 1107.164062 851.726562 C 1102.230469 853.128906 1097.195312 853.835938 1092.0625 853.855469 C 1075.519531 853.855469 1059.824219 846.210938 1047.957031 839.621094 L 998.617188 811.859375 C 975.484375 798.882812 952.398438 785.855469 929.164062 772.929688 C 921.03125 768.429688 912.664062 764.433594 904.054688 760.933594 C 895.445312 757.433594 886.660156 754.460938 877.695312 752.011719 C 868.730469 749.5625 859.65625 747.65625 850.460938 746.292969 C 841.269531 744.929688 832.03125 744.117188 822.742188 743.859375 C 813.398438 744.382812 804.121094 745.480469 794.914062 747.15625 C 785.707031 748.832031 776.640625 751.074219 767.710938 753.875 C 758.78125 756.679688 750.058594 760.023438 741.546875 763.910156 C 733.03125 767.796875 724.792969 772.195312 716.824219 777.105469 C 676.238281 801.597656 642.890625 835.597656 610.605469 868.441406 C 604.972656 874.175781 599.339844 879.960938 593.65625 885.644531 L 578.566406 900.378906 C 553.871094 924.671875 528.273438 949.769531 510.367188 980.25 C 494.828125 1006.804688 500.308594 1027.980469 527.066406 1045.082031 C 532.144531 1048.566406 537.617188 1051.25 543.480469 1053.132812 C 549.347656 1055.015625 555.359375 1056.019531 561.515625 1056.144531 C 577.660156 1056.144531 594.609375 1048.902344 613.421875 1034.015625 C 646.765625 1007.609375 679.304688 978.691406 710.738281 951.128906 L 713.605469 948.664062 C 738.398438 926.9375 755.75 918.132812 773.707031 918.132812 Z M 773.707031 917.933594 " fill-opacity="1" fill-rule="nonzero"/></g><path fill="#000000" d="M 1107.339844 472.644531 C 1181.621094 410.644531 1241.65625 336.449219 1300.675781 260.21875 C 1323.0625 231.757812 1273.203125 202.28125 1251.832031 231.757812 C 1195.867188 305.957031 1134.8125 376.085938 1080.882812 452.316406 C 1067.65625 468.582031 1093.09375 483.824219 1107.339844 472.644531 Z M 1107.339844 472.644531 " fill-opacity="1" fill-rule="nonzero"/><path fill="#000000" d="M 949.621094 387.269531 C 963.867188 373.039062 969.972656 352.710938 977.09375 334.414062 C 985.234375 311.039062 992.355469 288.675781 1000.496094 265.300781 C 1008.636719 240.90625 968.953125 229.726562 961.832031 255.136719 C 951.65625 294.777344 928.25 343.5625 936.390625 384.21875 C 936.390625 389.300781 945.550781 391.332031 949.621094 387.269531 Z M 949.621094 387.269531 " fill-opacity="1" fill-rule="nonzero"/><path fill="#000000" d="M 759.335938 239.890625 C 759.335938 242.9375 763.40625 242.9375 763.40625 239.890625 C 763.40625 236.839844 759.335938 236.839844 759.335938 239.890625 Z M 759.335938 239.890625 " fill-opacity="1" fill-rule="nonzero"/><path fill="#000000" d="M 768.496094 371.003906 C 780.707031 258.183594 782.742188 144.347656 786.8125 30.511719 C 787.828125 2.050781 743.058594 2.050781 742.039062 30.511719 C 737.96875 144.347656 732.882812 257.167969 737.96875 371.003906 C 738.988281 390.316406 766.460938 389.300781 768.496094 371.003906 Z M 768.496094 371.003906 " fill-opacity="1" fill-rule="nonzero"/><path fill="#000000" d="M 583.300781 376.085938 C 574.144531 309.003906 551.757812 245.988281 526.320312 182.972656 C 519.195312 164.675781 491.722656 170.773438 495.792969 191.101562 C 510.039062 257.167969 527.335938 322.21875 558.878906 382.1875 C 563.96875 394.382812 585.335938 389.300781 583.300781 376.085938 Z M 583.300781 376.085938 " fill-opacity="1" fill-rule="nonzero"/><path fill="#000000" d="M 401.160156 427.925781 C 378.773438 386.25 338.070312 351.695312 305.511719 317.136719 C 269.894531 278.511719 235.296875 238.875 198.667969 200.25 C 177.296875 177.890625 146.773438 210.414062 165.085938 233.792969 C 197.648438 275.464844 233.261719 314.085938 270.914062 351.695312 C 304.492188 384.21875 340.105469 425.890625 382.84375 446.21875 C 395.054688 451.300781 407.265625 440.121094 401.160156 427.925781 Z M 401.160156 427.925781 " fill-opacity="1" fill-rule="nonzero"/><path fill="#000000" d="M 141.683594 478.746094 C 156.949219 499.070312 185.4375 508.21875 207.824219 519.398438 C 231.230469 531.597656 251.578125 496.023438 228.175781 483.824219 C 204.773438 471.628906 179.332031 454.351562 151.859375 453.335938 C 137.613281 453.335938 134.5625 469.597656 141.683594 478.746094 Z M 141.683594 478.746094 " fill-opacity="1" fill-rule="nonzero"/><path fill="#000000" d="M 1249.796875 593.597656 C 1287.445312 582.417969 1321.027344 564.121094 1355.625 545.828125 C 1373.9375 537.695312 1358.675781 513.300781 1341.378906 520.417969 C 1306.78125 535.664062 1272.183594 550.910156 1241.65625 572.253906 C 1231.480469 580.382812 1236.570312 597.664062 1249.796875 593.597656 Z M 1249.796875 593.597656 " fill-opacity="1" fill-rule="nonzero"/></g></g></g></g></g></svg>