<svg xmlns="http://www.w3.org/2000/svg" xmlns:xlink="http://www.w3.org/1999/xlink" width="3780" zoomAndPan="magnify" viewBox="0 0 2835 2834.999876" height="3780" preserveAspectRatio="xMidYMid meet" version="1.0"><defs><clipPath id="d686382e6a"><path d="M 447 0.429688 L 651 0.429688 L 651 260 L 447 260 Z M 447 0.429688 " clip-rule="nonzero"/></clipPath><clipPath id="41794e8bbf"><path d="M 1 758 L 1098.28125 758 L 1098.28125 1310.84375 L 1 1310.84375 Z M 1 758 " clip-rule="nonzero"/></clipPath><clipPath id="c978619d50"><path d="M 164 1085 L 195 1085 L 195 1310.84375 L 164 1310.84375 Z M 164 1085 " clip-rule="nonzero"/></clipPath><clipPath id="634d74c16a"><path d="M 904 1085 L 935 1085 L 935 1310.84375 L 904 1310.84375 Z M 904 1085 " clip-rule="nonzero"/></clipPath><clipPath id="c2af283438"><path d="M 1349 0.429688 L 1553 0.429688 L 1553 260 L 1349 260 Z M 1349 0.429688 " clip-rule="nonzero"/></clipPath><clipPath id="af7050b70c"><path d="M 902.863281 758 L 2000.25 758 L 2000.25 1310.84375 L 902.863281 1310.84375 Z M 902.863281 758 " clip-rule="nonzero"/></clipPath><clipPath id="efb2abc6e5"><path d="M 1066 1085 L 1097 1085 L 1097 1310.84375 L 1066 1310.84375 Z M 1066 1085 " clip-rule="nonzero"/></clipPath><clipPath id="9b8a0cef46"><path d="M 1806 1085 L 1837 1085 L 1837 1310.84375 L 1806 1310.84375 Z M 1806 1085 " clip-rule="nonzero"/></clipPath><clipPath id="0db908b7e0"><rect x="0" width="2001" y="0" height="1311"/></clipPath></defs><g transform="matrix(1, 0, 0, 1, 417, 762)"><g clip-path="url(#0db908b7e0)"><path fill="#000000" d="M 826.621094 358.488281 L 272.550781 358.488281 C 264.105469 358.488281 257.195312 351.578125 257.195312 343.132812 L 257.195312 339.039062 C 257.195312 211.578125 338.578125 99.734375 459.886719 60.574219 C 468.074219 58.015625 476.519531 62.367188 479.335938 70.554688 C 481.894531 78.746094 477.542969 87.191406 469.355469 90.007812 C 364.429688 123.792969 292.769531 218.488281 288.164062 327.777344 L 811.007812 327.777344 C 808.195312 262 781.324219 200.828125 734.746094 153.992188 C 705.3125 124.558594 669.230469 102.546875 630.074219 90.007812 C 621.882812 87.449219 617.535156 78.746094 620.09375 70.8125 C 622.652344 62.621094 631.351562 58.269531 639.285156 60.832031 C 683.050781 74.90625 723.484375 99.734375 756.242188 132.492188 C 811.519531 187.777344 841.976562 260.976562 841.976562 339.292969 L 841.976562 343.386719 C 841.976562 351.578125 835.066406 358.488281 826.621094 358.488281 Z M 826.621094 358.488281 " fill-opacity="1" fill-rule="nonzero"/><g clip-path="url(#d686382e6a)"><path fill="#000000" d="M 626.746094 259.695312 C 626.492188 259.695312 626.234375 259.695312 625.980469 259.695312 C 617.535156 259.183594 610.878906 252.019531 611.390625 243.570312 L 620.09375 53.152344 C 620.347656 47.265625 618.300781 41.890625 614.207031 37.539062 C 610.113281 33.445312 604.738281 30.886719 598.851562 30.886719 L 499.554688 30.886719 C 493.667969 30.886719 488.292969 33.1875 484.199219 37.539062 C 480.105469 41.636719 478.054688 47.265625 478.3125 53.152344 L 487.015625 243.570312 C 487.527344 252.019531 480.871094 259.183594 472.425781 259.695312 C 463.980469 260.207031 456.816406 253.554688 456.304688 245.105469 L 447.601562 54.6875 C 446.835938 40.355469 451.953125 26.789062 461.933594 16.550781 C 471.914062 6.316406 485.222656 0.429688 499.296875 0.429688 L 598.59375 0.429688 C 612.925781 0.429688 626.234375 6.058594 635.960938 16.550781 C 645.941406 26.789062 650.804688 40.355469 650.292969 54.6875 L 641.589844 245.105469 C 641.847656 253.296875 634.9375 259.695312 626.746094 259.695312 Z M 626.746094 259.695312 " fill-opacity="1" fill-rule="nonzero"/></g><path fill="#000000" d="M 822.78125 439.367188 L 276.390625 439.367188 C 246.191406 439.367188 221.625 414.796875 221.625 384.59375 L 221.625 382.292969 C 221.625 352.089844 246.191406 327.519531 276.390625 327.519531 L 822.78125 327.519531 C 852.980469 327.519531 877.546875 352.089844 877.546875 382.292969 L 877.546875 384.59375 C 877.550781 414.796875 852.980469 439.367188 822.78125 439.367188 Z M 276.390625 358.488281 C 263.082031 358.488281 252.335938 369.238281 252.335938 382.546875 L 252.335938 384.851562 C 252.335938 398.160156 263.082031 408.910156 276.390625 408.910156 L 822.78125 408.910156 C 836.089844 408.910156 846.839844 398.160156 846.839844 384.851562 L 846.839844 382.546875 C 846.839844 369.238281 836.089844 358.488281 822.78125 358.488281 Z M 276.390625 358.488281 " fill-opacity="1" fill-rule="nonzero"/><path fill="#000000" d="M 549.714844 771.320312 C 518.492188 771.320312 487.527344 763.898438 459.117188 749.308594 C 384.902344 710.917969 331.15625 642.328125 303.773438 550.957031 C 283.300781 482.621094 284.582031 426.058594 284.582031 423.753906 C 284.835938 415.308594 291.746094 408.652344 300.449219 408.910156 C 308.894531 409.164062 315.546875 416.074219 315.289062 424.777344 C 315.289062 425.289062 314.265625 479.546875 333.460938 543.277344 C 358.796875 627.226562 405.886719 687.628906 473.195312 722.4375 C 521.050781 747.261719 578.378906 747.261719 626.234375 722.4375 C 787.976562 639 784.136719 426.824219 784.136719 424.777344 C 783.882812 416.332031 790.535156 409.164062 798.980469 408.910156 C 799.238281 408.910156 799.238281 408.910156 799.492188 408.910156 C 807.683594 408.910156 814.59375 415.5625 814.847656 423.753906 C 814.847656 426.058594 816.128906 482.621094 795.652344 550.957031 C 768.269531 642.328125 714.527344 711.175781 640.308594 749.308594 C 611.902344 763.898438 580.679688 771.320312 549.714844 771.320312 Z M 549.714844 771.320312 " fill-opacity="1" fill-rule="nonzero"/><path fill="#000000" d="M 549.714844 910.550781 C 467.5625 910.550781 400.511719 843.75 400.511719 761.59375 L 400.511719 702.472656 C 400.511719 694.027344 407.421875 687.117188 415.867188 687.117188 C 424.3125 687.117188 431.222656 694.027344 431.222656 702.472656 L 431.222656 761.59375 C 431.222656 826.859375 484.199219 879.839844 549.714844 879.839844 C 615.230469 879.839844 668.207031 826.859375 668.207031 761.59375 L 668.207031 702.472656 C 668.207031 694.027344 675.117188 687.117188 683.5625 687.117188 C 692.007812 687.117188 698.917969 694.027344 698.917969 702.472656 L 698.917969 761.59375 C 698.660156 843.75 631.863281 910.550781 549.714844 910.550781 Z M 549.714844 910.550781 " fill-opacity="1" fill-rule="nonzero"/><path fill="#000000" d="M 450.160156 1023.675781 C 447.089844 1023.675781 444.019531 1022.652344 441.203125 1020.863281 C 380.550781 977.609375 358.796875 809.457031 356.496094 790.515625 C 355.46875 782.070312 361.613281 774.390625 369.800781 773.367188 C 378.246094 772.34375 385.925781 778.488281 386.949219 786.675781 C 392.324219 830.699219 413.050781 944.589844 448.882812 986.308594 L 537.941406 884.957031 C 543.574219 878.558594 553.296875 878.046875 559.695312 883.679688 C 566.09375 889.308594 566.605469 899.035156 560.976562 905.433594 L 461.675781 1018.558594 C 458.863281 1021.886719 454.511719 1023.675781 450.160156 1023.675781 Z M 450.160156 1023.675781 " fill-opacity="1" fill-rule="nonzero"/><g clip-path="url(#41794e8bbf)"><path fill="#000000" d="M 1082.542969 1310.84375 L 16.375 1310.84375 C 7.929688 1310.84375 1.019531 1303.933594 1.019531 1295.484375 L 1.019531 1045.945312 C 1.019531 991.683594 20.980469 940.496094 57.324219 901.851562 C 61.929688 896.988281 66.792969 892.378906 71.65625 888.027344 C 92.640625 869.34375 117.71875 855.011719 146.128906 845.800781 L 411.261719 759.804688 C 419.449219 757.242188 427.894531 761.59375 430.710938 769.785156 C 433.527344 777.976562 428.917969 786.421875 420.730469 789.234375 L 155.597656 875.230469 C 131.285156 883.167969 110.042969 895.195312 92.382812 911.0625 C 88.035156 914.902344 83.9375 918.996094 79.84375 923.09375 C 48.878906 955.851562 31.988281 999.617188 31.988281 1046.199219 L 31.988281 1280.128906 L 1067.1875 1280.128906 L 1067.1875 1045.945312 C 1067.1875 999.363281 1050.039062 955.851562 1019.328125 922.835938 C 1015.234375 918.742188 1011.140625 914.648438 1006.789062 910.808594 C 989.128906 894.9375 967.632812 882.910156 943.578125 874.976562 L 678.441406 788.980469 C 670.253906 786.421875 665.902344 777.71875 668.460938 769.527344 C 671.019531 761.339844 679.722656 756.988281 687.910156 759.546875 L 953.046875 845.542969 C 981.453125 854.757812 1006.53125 868.832031 1027.519531 887.773438 C 1032.382812 892.125 1037.242188 896.988281 1041.851562 901.59375 C 1078.191406 940.242188 1098.152344 991.429688 1098.152344 1045.6875 L 1098.152344 1295.484375 C 1097.898438 1303.933594 1090.988281 1310.84375 1082.542969 1310.84375 Z M 1082.542969 1310.84375 " fill-opacity="1" fill-rule="nonzero"/></g><path fill="#000000" d="M 648.753906 1023.675781 C 644.40625 1023.675781 640.308594 1021.886719 637.238281 1018.558594 L 537.941406 905.433594 C 532.3125 899.035156 533.078125 889.308594 539.222656 883.679688 C 545.621094 878.046875 555.34375 878.816406 560.976562 884.957031 L 650.035156 986.308594 C 685.863281 944.589844 706.59375 830.699219 711.96875 786.675781 C 712.992188 778.230469 720.667969 772.34375 729.113281 773.367188 C 737.558594 774.390625 743.445312 782.070312 742.421875 790.515625 C 740.121094 809.457031 718.367188 977.863281 657.714844 1020.863281 C 654.898438 1022.910156 651.828125 1023.675781 648.753906 1023.675781 Z M 648.753906 1023.675781 " fill-opacity="1" fill-rule="nonzero"/><g clip-path="url(#c978619d50)"><path fill="#000000" d="M 179.398438 1310.84375 C 170.953125 1310.84375 164.042969 1303.933594 164.042969 1295.484375 L 164.042969 1100.972656 C 164.042969 1092.523438 170.953125 1085.613281 179.398438 1085.613281 C 187.84375 1085.613281 194.753906 1092.523438 194.753906 1100.972656 L 194.753906 1295.484375 C 194.753906 1303.933594 188.097656 1310.84375 179.398438 1310.84375 Z M 179.398438 1310.84375 " fill-opacity="1" fill-rule="nonzero"/></g><g clip-path="url(#634d74c16a)"><path fill="#000000" d="M 919.519531 1310.84375 C 911.074219 1310.84375 904.164062 1303.933594 904.164062 1295.484375 L 904.164062 1100.972656 C 904.164062 1092.523438 911.074219 1085.613281 919.519531 1085.613281 C 927.964844 1085.613281 934.875 1092.523438 934.875 1100.972656 L 934.875 1295.484375 C 934.875 1303.933594 927.964844 1310.84375 919.519531 1310.84375 Z M 919.519531 1310.84375 " fill-opacity="1" fill-rule="nonzero"/></g><path fill="#000000" d="M 813.570312 1136.289062 L 693.03125 1136.289062 C 684.585938 1136.289062 677.675781 1129.378906 677.675781 1120.933594 C 677.675781 1112.488281 684.585938 1105.578125 693.03125 1105.578125 L 813.570312 1105.578125 C 822.015625 1105.578125 828.925781 1112.488281 828.925781 1120.933594 C 828.925781 1129.378906 822.015625 1136.289062 813.570312 1136.289062 Z M 813.570312 1136.289062 " fill-opacity="1" fill-rule="nonzero"/><path fill="#000000" d="M 1728.589844 358.488281 L 1174.523438 358.488281 C 1166.078125 358.488281 1159.167969 351.578125 1159.167969 343.132812 L 1159.167969 339.039062 C 1159.167969 211.578125 1240.550781 99.734375 1361.855469 60.574219 C 1370.046875 58.015625 1378.492188 62.367188 1381.304688 70.554688 C 1383.863281 78.746094 1379.515625 87.191406 1371.324219 90.007812 C 1266.398438 123.792969 1194.738281 218.488281 1190.132812 327.777344 L 1712.980469 327.777344 C 1710.164062 262 1683.292969 200.828125 1636.714844 153.992188 C 1607.285156 124.558594 1571.199219 102.546875 1532.042969 90.007812 C 1523.855469 87.449219 1519.503906 78.746094 1522.0625 70.8125 C 1524.621094 62.621094 1533.324219 58.269531 1541.257812 60.832031 C 1585.019531 74.90625 1625.453125 99.734375 1658.210938 132.492188 C 1713.492188 187.777344 1743.945312 260.976562 1743.945312 339.292969 L 1743.945312 343.386719 C 1743.945312 351.578125 1737.035156 358.488281 1728.589844 358.488281 Z M 1728.589844 358.488281 " fill-opacity="1" fill-rule="nonzero"/><g clip-path="url(#c2af283438)"><path fill="#000000" d="M 1528.714844 259.695312 C 1528.460938 259.695312 1528.203125 259.695312 1527.949219 259.695312 C 1519.503906 259.183594 1512.847656 252.019531 1513.359375 243.570312 L 1522.0625 53.152344 C 1522.316406 47.265625 1520.269531 41.890625 1516.175781 37.539062 C 1512.082031 33.445312 1506.707031 30.886719 1500.820312 30.886719 L 1401.523438 30.886719 C 1395.636719 30.886719 1390.261719 33.1875 1386.167969 37.539062 C 1382.074219 41.636719 1380.027344 47.265625 1380.28125 53.152344 L 1388.984375 243.570312 C 1389.496094 252.019531 1382.839844 259.183594 1374.394531 259.695312 C 1365.949219 260.207031 1358.785156 253.554688 1358.273438 245.105469 L 1349.570312 54.6875 C 1348.804688 40.355469 1353.921875 26.789062 1363.902344 16.550781 C 1373.882812 6.316406 1387.191406 0.429688 1401.265625 0.429688 L 1500.566406 0.429688 C 1514.894531 0.429688 1528.203125 6.058594 1537.929688 16.550781 C 1547.910156 26.789062 1552.773438 40.355469 1552.261719 54.6875 L 1543.558594 245.105469 C 1543.816406 253.296875 1536.90625 259.695312 1528.714844 259.695312 Z M 1528.714844 259.695312 " fill-opacity="1" fill-rule="nonzero"/></g><path fill="#000000" d="M 1724.75 439.367188 L 1178.359375 439.367188 C 1148.160156 439.367188 1123.59375 414.796875 1123.59375 384.59375 L 1123.59375 382.292969 C 1123.59375 352.089844 1148.160156 327.519531 1178.359375 327.519531 L 1724.75 327.519531 C 1754.949219 327.519531 1779.519531 352.089844 1779.519531 382.292969 L 1779.519531 384.59375 C 1779.519531 414.796875 1754.949219 439.367188 1724.75 439.367188 Z M 1178.359375 358.488281 C 1165.050781 358.488281 1154.304688 369.238281 1154.304688 382.546875 L 1154.304688 384.851562 C 1154.304688 398.160156 1165.050781 408.910156 1178.359375 408.910156 L 1724.75 408.910156 C 1738.058594 408.910156 1748.808594 398.160156 1748.808594 384.851562 L 1748.808594 382.546875 C 1748.808594 369.238281 1738.058594 358.488281 1724.75 358.488281 Z M 1178.359375 358.488281 " fill-opacity="1" fill-rule="nonzero"/><path fill="#000000" d="M 1451.683594 771.320312 C 1420.460938 771.320312 1389.496094 763.898438 1361.085938 749.308594 C 1286.871094 710.917969 1233.128906 642.328125 1205.742188 550.957031 C 1185.269531 482.621094 1186.550781 426.058594 1186.550781 423.753906 C 1186.804688 415.308594 1193.714844 408.652344 1202.417969 408.910156 C 1210.863281 409.164062 1217.515625 416.074219 1217.261719 424.777344 C 1217.261719 425.289062 1216.238281 479.546875 1235.429688 543.277344 C 1260.765625 627.226562 1307.855469 687.628906 1375.164062 722.4375 C 1423.019531 747.261719 1480.347656 747.261719 1528.203125 722.4375 C 1689.945312 639 1686.105469 426.824219 1686.105469 424.777344 C 1685.851562 416.332031 1692.503906 409.164062 1700.949219 408.910156 C 1701.207031 408.910156 1701.207031 408.910156 1701.460938 408.910156 C 1709.652344 408.910156 1716.5625 415.5625 1716.816406 423.753906 C 1716.816406 426.058594 1718.097656 482.621094 1697.625 550.957031 C 1670.238281 642.328125 1616.496094 711.175781 1542.28125 749.308594 C 1513.871094 763.898438 1482.648438 771.320312 1451.683594 771.320312 Z M 1451.683594 771.320312 " fill-opacity="1" fill-rule="nonzero"/><path fill="#000000" d="M 1451.683594 910.550781 C 1369.535156 910.550781 1302.480469 843.75 1302.480469 761.59375 L 1302.480469 702.472656 C 1302.480469 694.027344 1309.390625 687.117188 1317.835938 687.117188 C 1326.28125 687.117188 1333.191406 694.027344 1333.191406 702.472656 L 1333.191406 761.59375 C 1333.191406 826.859375 1386.167969 879.839844 1451.683594 879.839844 C 1517.199219 879.839844 1570.175781 826.859375 1570.175781 761.59375 L 1570.175781 702.472656 C 1570.175781 694.027344 1577.085938 687.117188 1585.53125 687.117188 C 1593.976562 687.117188 1600.886719 694.027344 1600.886719 702.472656 L 1600.886719 761.59375 C 1600.628906 843.75 1533.835938 910.550781 1451.683594 910.550781 Z M 1451.683594 910.550781 " fill-opacity="1" fill-rule="nonzero"/><path fill="#000000" d="M 1352.128906 1023.675781 C 1349.058594 1023.675781 1345.988281 1022.652344 1343.171875 1020.863281 C 1282.519531 977.609375 1260.765625 809.457031 1258.464844 790.515625 C 1257.441406 782.070312 1263.582031 774.390625 1271.773438 773.367188 C 1280.21875 772.34375 1287.894531 778.488281 1288.917969 786.675781 C 1294.292969 830.699219 1315.023438 944.589844 1350.851562 986.308594 L 1439.910156 884.957031 C 1445.542969 878.558594 1455.265625 878.046875 1461.664062 883.679688 C 1468.0625 889.308594 1468.574219 899.035156 1462.945312 905.433594 L 1363.648438 1018.558594 C 1360.832031 1021.886719 1356.480469 1023.675781 1352.128906 1023.675781 Z M 1352.128906 1023.675781 " fill-opacity="1" fill-rule="nonzero"/><g clip-path="url(#af7050b70c)"><path fill="#000000" d="M 1984.511719 1310.84375 L 918.34375 1310.84375 C 909.898438 1310.84375 902.988281 1303.933594 902.988281 1295.484375 L 902.988281 1045.945312 C 902.988281 991.683594 922.953125 940.496094 959.292969 901.851562 C 963.898438 896.988281 968.761719 892.378906 973.625 888.027344 C 994.609375 869.34375 1019.691406 855.011719 1048.097656 845.800781 L 1313.230469 759.804688 C 1321.421875 757.242188 1329.867188 761.59375 1332.679688 769.785156 C 1335.496094 777.976562 1330.890625 786.421875 1322.699219 789.234375 L 1057.566406 875.230469 C 1033.253906 883.167969 1012.011719 895.195312 994.351562 911.0625 C 990.003906 914.902344 985.90625 918.996094 981.8125 923.09375 C 950.847656 955.851562 933.957031 999.617188 933.957031 1046.199219 L 933.957031 1280.128906 L 1969.15625 1280.128906 L 1969.15625 1045.945312 C 1969.15625 999.363281 1952.007812 955.851562 1921.296875 922.835938 C 1917.203125 918.742188 1913.109375 914.648438 1908.757812 910.808594 C 1891.101562 894.9375 1869.601562 882.910156 1845.546875 874.976562 L 1580.410156 788.980469 C 1572.222656 786.421875 1567.871094 777.71875 1570.429688 769.527344 C 1572.988281 761.339844 1581.691406 756.988281 1589.882812 759.546875 L 1855.015625 845.542969 C 1883.421875 854.757812 1908.503906 868.832031 1929.488281 887.773438 C 1934.351562 892.125 1939.210938 896.988281 1943.820312 901.59375 C 1980.160156 940.242188 2000.121094 991.429688 2000.121094 1045.6875 L 2000.121094 1295.484375 C 1999.867188 1303.933594 1992.957031 1310.84375 1984.511719 1310.84375 Z M 1984.511719 1310.84375 " fill-opacity="1" fill-rule="nonzero"/></g><path fill="#000000" d="M 1550.726562 1023.675781 C 1546.375 1023.675781 1542.28125 1021.886719 1539.207031 1018.558594 L 1439.910156 905.433594 C 1434.28125 899.035156 1435.050781 889.308594 1441.191406 883.679688 C 1447.589844 878.046875 1457.3125 878.816406 1462.945312 884.957031 L 1552.003906 986.308594 C 1587.832031 944.589844 1608.5625 830.699219 1613.9375 786.675781 C 1614.960938 778.230469 1622.640625 772.34375 1631.085938 773.367188 C 1639.53125 774.390625 1645.414062 782.070312 1644.390625 790.515625 C 1642.089844 809.457031 1620.335938 977.863281 1559.683594 1020.863281 C 1556.867188 1022.910156 1553.796875 1023.675781 1550.726562 1023.675781 Z M 1550.726562 1023.675781 " fill-opacity="1" fill-rule="nonzero"/><g clip-path="url(#efb2abc6e5)"><path fill="#000000" d="M 1081.367188 1310.84375 C 1072.921875 1310.84375 1066.011719 1303.933594 1066.011719 1295.484375 L 1066.011719 1100.972656 C 1066.011719 1092.523438 1072.921875 1085.613281 1081.367188 1085.613281 C 1089.8125 1085.613281 1096.722656 1092.523438 1096.722656 1100.972656 L 1096.722656 1295.484375 C 1096.722656 1303.933594 1090.066406 1310.84375 1081.367188 1310.84375 Z M 1081.367188 1310.84375 " fill-opacity="1" fill-rule="nonzero"/></g><g clip-path="url(#9b8a0cef46)"><path fill="#000000" d="M 1821.488281 1310.84375 C 1813.042969 1310.84375 1806.132812 1303.933594 1806.132812 1295.484375 L 1806.132812 1100.972656 C 1806.132812 1092.523438 1813.042969 1085.613281 1821.488281 1085.613281 C 1829.933594 1085.613281 1836.84375 1092.523438 1836.84375 1100.972656 L 1836.84375 1295.484375 C 1836.84375 1303.933594 1829.933594 1310.84375 1821.488281 1310.84375 Z M 1821.488281 1310.84375 " fill-opacity="1" fill-rule="nonzero"/></g><path fill="#000000" d="M 1715.539062 1136.289062 L 1595 1136.289062 C 1586.554688 1136.289062 1579.644531 1129.378906 1579.644531 1120.933594 C 1579.644531 1112.488281 1586.554688 1105.578125 1595 1105.578125 L 1715.539062 1105.578125 C 1723.984375 1105.578125 1730.894531 1112.488281 1730.894531 1120.933594 C 1730.894531 1129.378906 1723.984375 1136.289062 1715.539062 1136.289062 Z M 1715.539062 1136.289062 " fill-opacity="1" fill-rule="nonzero"/></g></g></svg>